<?xml version="1.0" encoding="UTF-8" standalone="no"?>
<svg
   xmlns:dc="http://purl.org/dc/elements/1.1/"
   xmlns:cc="http://creativecommons.org/ns#"
   xmlns:rdf="http://www.w3.org/1999/02/22-rdf-syntax-ns#"
   xmlns:svg="http://www.w3.org/2000/svg"
   xmlns="http://www.w3.org/2000/svg"
   xmlns:xlink="http://www.w3.org/1999/xlink"
   xmlns:sodipodi="http://sodipodi.sourceforge.net/DTD/sodipodi-0.dtd"
   xmlns:inkscape="http://www.inkscape.org/namespaces/inkscape"
   viewBox="0 0 500 400"
   version="1.1"
   id="svg171"
   sodipodi:docname="401.svg"
   inkscape:version="0.92.4 (5da689c313, 2019-01-14)">
  <metadata
     id="metadata175">
    <rdf:RDF>
      <cc:Work
         rdf:about="">
        <dc:format>image/svg+xml</dc:format>
        <dc:type
           rdf:resource="http://purl.org/dc/dcmitype/StillImage" />
      </cc:Work>
    </rdf:RDF>
  </metadata>
  <sodipodi:namedview
     pagecolor="#ffffff"
     bordercolor="#666666"
     borderopacity="1"
     objecttolerance="10"
     gridtolerance="10"
     guidetolerance="10"
     inkscape:pageopacity="0"
     inkscape:pageshadow="2"
     inkscape:window-width="1920"
     inkscape:window-height="1016"
     id="namedview173"
     showgrid="false"
     inkscape:snap-text-baseline="false"
     inkscape:zoom="0.944"
     inkscape:cx="125.94837"
     inkscape:cy="218.80835"
     inkscape:window-x="0"
     inkscape:window-y="27"
     inkscape:window-maximized="1"
     inkscape:current-layer="svg171" />
  <defs
     id="defs29">
    <style
       id="style2">.cls-1,.cls-14,.cls-23,.cls-24,.cls-3,.cls-6{fill:none;}.cls-2,.cls-25{fill:transparent;}.cls-3,.cls-6{stroke:#fff;}.cls-14,.cls-23,.cls-24,.cls-3,.cls-6{stroke-miterlimit:10;}.cls-23,.cls-24,.cls-3{stroke-width:2px;}.cls-4{fill:#e1e8f6;}.cls-5{fill:#e6e8e8;}.cls-6{opacity:0.75;}.cls-7{fill:#ee5050;}.cls-8{fill:#d35050;}.cls-9{fill:url(#linear-gradient);}.cls-10{fill:#19034d;}.cls-11{fill:#ff735f;}.cls-12{fill:#f5ba00;}.cls-13{fill:#db6352;}.cls-14{stroke:#19034d;}.cls-15{fill:url(#linear-gradient-2);}.cls-16{fill:url(#linear-gradient-3);}.cls-17{fill:url(#linear-gradient-4);}.cls-18{fill:url(#linear-gradient-5);}.cls-19{fill:#0648b3;}.cls-20{opacity:0.49;fill:url(#linear-gradient-6);}.cls-21{clip-path:url(#clip-path);}.cls-22{fill:#228f4e;}.cls-23{stroke:#0648b3;}.cls-24{stroke:#e1e8f6;}.cls-25{font-size:60px;font-family:OpenSans-Bold, Open Sans;font-weight:700;}</style>
    <linearGradient
       id="linear-gradient"
       x1="77.38"
       y1="306.66"
       x2="109.91"
       y2="291.77"
       gradientUnits="userSpaceOnUse">
      <stop
         offset="0"
         stop-color="#ee5050"
         stop-opacity="0.91"
         id="stop4" />
      <stop
         offset="0.56"
         stop-color="#311573"
         stop-opacity="0"
         id="stop6" />
    </linearGradient>
    <linearGradient
       id="linear-gradient-2"
       x1="232.65"
       y1="322.16"
       x2="246.86"
       y2="291.19"
       gradientUnits="userSpaceOnUse">
      <stop
         offset="0"
         stop-color="#201b59"
         stop-opacity="0.91"
         id="stop9" />
      <stop
         offset="0.56"
         stop-color="#fc0"
         stop-opacity="0"
         id="stop11" />
    </linearGradient>
    <linearGradient
       id="linear-gradient-3"
       x1="172.54"
       y1="266.31"
       x2="189.46"
       y2="282.58"
       xlink:href="#linear-gradient-2" />
    <linearGradient
       id="linear-gradient-4"
       x1="224.94"
       y1="188.66"
       x2="213.25"
       y2="202.36"
       gradientTransform="translate(-22.25 78.28) rotate(-12.97)"
       gradientUnits="userSpaceOnUse">
      <stop
         offset="0.27"
         stop-color="#201b59"
         stop-opacity="0.91"
         id="stop15" />
      <stop
         offset="0.56"
         stop-color="#ff735f"
         stop-opacity="0"
         id="stop17" />
    </linearGradient>
    <linearGradient
       id="linear-gradient-5"
       x1="167.41"
       y1="299.53"
       x2="158.71"
       y2="281.87"
       xlink:href="#linear-gradient-4" />
    <linearGradient
       id="linear-gradient-6"
       x1="295.35"
       y1="255.98"
       x2="220.75"
       y2="174.87"
       gradientUnits="userSpaceOnUse">
      <stop
         offset="0"
         stop-color="#fff"
         id="stop21" />
      <stop
         offset="0.55"
         stop-color="#fff"
         stop-opacity="0.3"
         id="stop23" />
    </linearGradient>
    <clipPath
       id="clip-path"
       transform="translate(42 48)">
      <path
         class="cls-1"
         d="M359.11,280.29c.27-1.92.93-3.65,2.45-4.54,2.16-1.27,5.05-.21,7.57-.68,7.07-1.32,7-11.2,6.87-16.64-.09-3.46-.25-6.91-.46-10.37a5.7,5.7,0,0,0-.61-2.65,3.91,3.91,0,0,0-4.41-1.37c-3.09.88-4.83,4.23-5.38,7.4s-.28,6.47-1.11,9.58a5.67,5.67,0,0,1-.69,1.67,3.89,3.89,0,0,1-1.55,1.32,3,3,0,0,1-2.87,0c-1-.63-.82-1.42-.81-2.37a29.34,29.34,0,0,0-.29-3.47c-.3-2.6-.56-5.2-.81-7.81-.48-5.12-.9-10.25-1.43-15.37a17.62,17.62,0,0,0-1.68-6.86c-5.07-9.1-12.79-1.11-13.5,5.53-1.61,15.09,6.25,29.32,5.59,44.3a4.48,4.48,0,0,1-.35,1.85c-1.18,2.36-5,2-6.71.59-2.74-2.13-1.76-6.75-1.76-9.53,0-2.27-.73-4.83-2.93-5.89-2.48-1.21-5.73.24-7.15,2.46-1.83,2.87-1.62,7.78-1.35,11a13.56,13.56,0,0,0,2.1,6.61,8.33,8.33,0,0,0,6.15,3.63c1.46.09,3.13-.22,4.24.66,1.35,1.07.87,3,.92,4.65.1,3.24,2.87,6,6.09,7.37s6.85,1.59,10.39,1.8c3-4.82,3.2-10.37,3.36-15.76A57,57,0,0,1,359.11,280.29Z"
         id="path26" />
    </clipPath>
    <linearGradient
       inkscape:collect="always"
       xlink:href="#linear-gradient-2"
       id="linearGradient896"
       gradientUnits="userSpaceOnUse"
       x1="232.65"
       y1="322.16"
       x2="246.86"
       y2="291.19" />
    <linearGradient
       inkscape:collect="always"
       xlink:href="#linear-gradient-4"
       id="linearGradient898"
       gradientUnits="userSpaceOnUse"
       gradientTransform="rotate(-12.97,333.20381,137.01067)"
       x1="224.94"
       y1="188.66"
       x2="213.25"
       y2="202.36" />
  </defs>
  <title
     id="title31">500</title>
  <g
     id="BACKGROUND">
    <rect
       class="cls-2"
       width="500"
       height="500"
       id="rect33" />
  </g>
  <g
     id="OBJEKTS"
     transform="translate(-8,-44)">
    <path
       class="cls-3"
       d="m 116.7,214.63 h 75 a 23,23 0 0 1 23,23 v 30.87 h -98 a 23,23 0 0 1 -23,-23 v -7.85 a 23,23 0 0 1 23,-23.02 z"
       id="path36"
       inkscape:connector-curvature="0"
       style="fill:none;stroke:#ffffff;stroke-width:2px;stroke-miterlimit:10" />
    <path
       class="cls-4"
       d="m 275.06,360.72 c 27.57,-9.72 54.23,-26.34 71.69,-50.56 21.35,-29.64 19.52,-63.23 23.89,-97.85 1.77,-14.07 11.19,-22.16 16.8,-34.64 11.83,-26.32 7.65,-65.93 -17.22,-83.81 C 354.9,82.86 340.1,81.65 331.86,62.5 327.3,51.91 324.63,40.25 317.55,31.16 307.3,18 289.89,12.81 273.4,10.21 c -19.17,-3 -37.9,-2.35 -57.14,-2.93 -20.5,-0.6 -41.29,0 -61.2,5.39 -27,7.39 -56.69,26.73 -61.41,56.18 -2,12.62 0.63,26.09 -4.17,37.94 -7.21,17.84 -26.43,23.89 -40.75,34.42 -15.37,11.31 -25.36,29 -29.75,47.33 -7.47,31.27 -2,66 12.59,94.37 15.57,30.39 40.86,56.26 71.54,71.47 24,11.91 57.23,15.42 84.33,17.09 29.61,1.83 59.76,-0.92 87.62,-10.75 z"
       transform="translate(42,48)"
       id="path38"
       inkscape:connector-curvature="0"
       style="fill:#e1e8f6" />
    <path
       class="cls-5"
       d="M 345.6,238.61 C 345.42,193.93 333.06,151.02 296.71,122.23 251.85,86.7 189.14,87.16 143.29,120.31 c -30,21.67 -51,54.28 -62.8,89.35 -11.8,35.07 -14.84,72.58 -13.58,109.56 l 273,0.85 3.42,-37.64 c 1.31,-14.43 2.32,-29.12 2.27,-43.82 z"
       transform="translate(42,48)"
       id="path40"
       inkscape:connector-curvature="0"
       style="fill:#e6e8e8" />
    <path
       class="cls-6"
       d="m 131.7,209.63 h 75 a 23,23 0 0 1 23,23 v 30.87 h -98 a 23,23 0 0 1 -23,-23 v -7.85 a 23,23 0 0 1 23,-23.02 z"
       id="path42"
       inkscape:connector-curvature="0"
       style="opacity:0.75;fill:none;stroke:#ffffff;stroke-miterlimit:10" />
    <path
       class="cls-6"
       d="m 193.49,103.38 h 104.69 a 30.45,30.45 0 0 1 30.45,30.45 v 40.83 H 193.49 A 30.45,30.45 0 0 1 163,144.21 v -10.38 a 30.45,30.45 0 0 1 30.49,-30.45 z"
       id="path44"
       inkscape:connector-curvature="0"
       style="opacity:0.75;fill:none;stroke:#ffffff;stroke-miterlimit:10" />
    <path
       class="cls-7"
       d="m 113.38,312.08 a 12.43,12.43 0 0 0 -1.16,-0.86 c -1.41,-1.12 -1.7,-3.12 -1.85,-4.92 -1.81,-22 1.49,-44.15 0.45,-66.21 -0.25,-5.26 -4.52,-2.68 -8,-2 -0.52,0.1 -7.35,1.38 -7.28,0.61 -0.61,6.26 -1.41,13 -5.56,17.71 -2.87,3.28 -7,5.15 -10.59,7.6 -13.55,9.21 -21.47,26.93 -23.44,42.92 0,-0.35 -0.07,-0.71 -0.1,-1.06 q -0.41,-4.78 -0.64,-9.57 -0.5,-10.07 -0.28,-20.15 c 0.11,-5 0.71,-10.46 -2.3,-14.8 -2.55,-3.69 -5.4,-4 -9,-4.28 -1,-2 -0.81,-5.92 -0.8,-7.69 0,-2.85 0.5,-6.11 2.58,-8.28 3.42,-3.59 8.74,-1.4 13.07,-2.48 9.82,-2.46 6.32,-15 5.67,-22.21 -0.41,-4.45 -7.41,-4.49 -7,0 0.32,3.62 1,7.39 1,11 0,2.33 0,3.84 -2.44,4.56 a 12.75,12.75 0 0 1 -3.38,0 c -5.11,0 -9.47,1.1 -12.75,5.25 C 36,241.71 35.42,247.49 36,253 c 0.44,4.16 0.62,10 5.71,10.89 4.72,0.82 6.2,1.76 6.32,6.84 0.08,3.39 -0.17,6.81 -0.18,10.21 q -0.06,11.52 0.83,23 c 0.33,4.37 -0.41,12.34 3.3,15.59 a 5.16,5.16 0 0 0 5.89,0.83 c 5.82,0.32 19.59,-0.5 21.06,-0.5 H 96.7 c 3,0 8.22,1 11.07,-0.45 1.54,-0.8 4.29,-2.25 5.41,-3.55 a 2.92,2.92 0 0 0 0.2,-3.78 z"
       transform="translate(42,48)"
       id="path46"
       inkscape:connector-curvature="0"
       style="fill:#ee5050" />
    <path
       class="cls-8"
       d="m 111,246.53 c 0,-1.8 0,-3.6 -0.14,-5.39 0,-0.35 0,-0.7 -0.11,-1 a 3.93,3.93 0 0 0 -0.34,-1.07 c -1.29,-2.52 -5.88,-0.34 -7.69,0.55 a 34.45,34.45 0 0 0 -5.61,3.59 8.41,8.41 0 0 0 -2.74,2.89 c -0.59,1.27 -0.25,3.31 -0.12,4.66 a 5.49,5.49 0 0 0 0.89,2.93 2.2,2.2 0 0 0 2.74,0.71 9.54,9.54 0 0 0 0.93,3.16 3.3,3.3 0 0 0 2,1.54 c 0.56,0.16 0.53,0.06 0.73,0.65 0,0 0,0 0,0.05 a 5,5 0 0 0 0.54,1.3 v 0.08 a 2.63,2.63 0 0 0 0.56,0.79 1.83,1.83 0 0 0 0.46,0.28 v 0 a 2.48,2.48 0 0 0 1.1,0.37 2.71,2.71 0 0 0 2.64,-1.11 5.27,5.27 0 0 0 0.41,-3.19 2,2 0 0 0 1.83,-1.26 7.34,7.34 0 0 0 0.3,-2.8 c 0,-1.07 0,-2.15 -0.11,-3.22 2.17,0.2 1.73,-3.04 1.73,-4.51 z"
       transform="translate(42,48)"
       id="path48"
       inkscape:connector-curvature="0"
       style="fill:#d35050" />
    <path
       class="cls-9"
       d="m 87.93,282.33 a 11.39,11.39 0 0 1 5.43,10.56 c -0.44,4.32 -3.86,7.78 -7,10.43 -3.14,2.65 -7,5.34 -9.12,9.11 a 65.39,65.39 0 0 1 6.55,-0.5 c 1.87,-0.06 4,0.12 5.14,1.64 1.14,1.52 0.51,3.8 0.81,5.74 a 0.5,0.5 0 0 0 0.66,-0.14 c 0.15,0.51 0.1,0.54 0.62,0.5 a 5.29,5.29 0 0 0 4.05,-3 14.88,14.88 0 0 0 1.26,-5.08 A 102,102 0 0 0 97,292.77 12.69,12.69 0 0 0 95.66,287 c -1.66,-2.82 -4.41,-4.94 -7.73,-4.67 z"
       transform="translate(42,48)"
       id="path50"
       style="fill:url(#linear-gradient)"
       inkscape:connector-curvature="0" />
    <path
       class="cls-7"
       d="m 79.17,224.23 c -0.08,-0.31 -0.17,-0.62 -0.26,-0.94 0,0.15 0.84,0.45 1,0.54 l 1.07,0.58 c 0.71,0.4 1.42,0.8 2.12,1.21 0.7,0.41 1.4,0.84 2.09,1.27 0.31,0.2 0.47,0.37 0.83,0.31 a 7.58,7.58 0 0 0 1.5,-0.57 l 1.81,-0.72 3.61,-1.43 c 2.39,-0.94 4.77,-1.9 7.12,-2.91 0.91,-0.4 3,-0.92 3.32,-1.92 a 3.79,3.79 0 0 0 0.15,-1.12 c 0.1,-1.91 0.47,-5.53 0.47,-5.53 0,0 1.43,1.22 1.65,1.49 0.53,0.62 1,1.25 1.5,1.91 a 38.25,38.25 0 0 1 2.61,4 62.26,62.26 0 0 1 4.2,9.31 c 0.92,2.59 1.38,5.17 -0.35,7.5 -1.6,2.17 -4.15,3.54 -6.5,4.75 -4.77,2.46 -9.88,5.21 -15.3,5.73 a 7.28,7.28 0 0 1 -4,-0.53 7.05,7.05 0 0 1 -2.81,-3.01 c -3.31,-6.23 -4,-13.22 -5.83,-19.92 z"
       transform="translate(42,48)"
       id="path52"
       inkscape:connector-curvature="0"
       style="fill:#ee5050" />
    <path
       class="cls-10"
       d="m 105.86,238 c -1.58,-0.52 -3.24,-0.63 -4.83,-1.09 0.11,-0.16 0.2,-0.34 0.29,-0.49 0.24,-0.42 0.47,-0.85 0.69,-1.27 a 0.51,0.51 0 0 0 -0.3,-0.74 c -0.52,-0.2 -1.39,0.28 -1.89,0.46 a 11.83,11.83 0 0 0 -2.2,1 0.5,0.5 0 0 0 0.12,0.91 l 2,0.64 a 46.37,46.37 0 0 0 -1.74,5.19 0.51662365,0.51662365 0 0 0 1,0.26 48.57,48.57 0 0 1 1.7,-5 c 1.62,0.48 3.33,0.58 4.95,1.11 0.56,0.18 0.82,-0.78 0.21,-0.98 z"
       transform="translate(42,48)"
       id="path54"
       inkscape:connector-curvature="0"
       style="fill:#19034d" />
    <path
       class="cls-10"
       d="m 92.15,233.8 a 0.88,0.88 0 0 0 -0.64,0 0.38,0.38 0 0 0 -0.36,0.17 1.07,1.07 0 0 0 -0.21,0.41 1.35,1.35 0 0 0 -0.08,0.24 0.47,0.47 0 0 0 0.1,0.42 0.93,0.93 0 0 0 1.69,0.11 0.92,0.92 0 0 0 -0.5,-1.35 z"
       transform="translate(42,48)"
       id="path56"
       inkscape:connector-curvature="0"
       style="fill:#19034d" />
    <path
       class="cls-10"
       d="m 107.15,227.8 a 0.88,0.88 0 0 0 -0.64,0 0.38,0.38 0 0 0 -0.36,0.17 1.07,1.07 0 0 0 -0.21,0.41 1.35,1.35 0 0 0 -0.08,0.24 0.47,0.47 0 0 0 0.1,0.42 0.93,0.93 0 0 0 1.69,0.11 0.92,0.92 0 0 0 -0.5,-1.35 z"
       transform="translate(42,48)"
       id="path58"
       inkscape:connector-curvature="0"
       style="fill:#19034d" />
    <path
       class="cls-11"
       d="m 133,292.68 c -1.9,6.52 -3.54,14.08 0.31,19.68 4.64,6.75 15.28,6.67 22,1.95 6.72,-4.72 10.31,-12.58 13.4,-20.16 5.22,-12.77 9.81,-25.92 11.63,-39.59 1.06,-8 0.13,-17.92 -7.12,-21.43 -11.17,-5.41 -20.69,3.21 -24.3,12.65 -5.92,15.43 -11.26,31.04 -15.92,46.9 z"
       transform="translate(42,48)"
       id="path60"
       inkscape:connector-curvature="0"
       style="fill:#ff735f" />
    <path
       class="cls-12"
       d="m 166.92,210.24 a 68.32,68.32 0 0 0 -7.7,9.91 c -3.15,4.9 -5.26,10.14 -7.73,15.37 -0.86,1.83 -8.12,17.75 -6.5,18.91 9.12,6.53 18.09,13.65 28.55,17.66 0.35,0.14 -1.65,7.8 -1.83,8.53 -0.71,2.84 -1.36,5.69 -1.93,8.55 -1.15,5.69 -2.05,11.47 -3.05,17.19 -0.55,3.19 -1.1,6.39 -1.63,9.58 -0.24,1.43 45.21,4.46 49.32,4.52 12,0.18 30.91,3.55 38.21,-8.72 a 33.16,33.16 0 0 0 3.37,-9.54 236,236 0 0 0 6,-59 63,63 0 0 0 -1.49,-13.85 c -1.65,-6.57 -5.09,-12.47 -8.7,-18.13 -3.29,-5.17 -8.47,-8 -14,-10.66 -16.55,-7.91 -36.46,-10.46 -53.25,-3.06 a 54.48,54.48 0 0 0 -17.64,12.74 z"
       transform="translate(42,48)"
       id="path62"
       inkscape:connector-curvature="0"
       style="fill:#f5ba00" />
    <path
       class="cls-11"
       d="m 242.45,257 c -0.46,1.05 -0.91,2.1 -1.36,3.15 -1.75,4 -6.13,11 -6.13,15.43 -2.05,6.41 -3,13.27 -1.84,19.89 a 54.1,54.1 0 0 0 2.17,7.78 32.26,32.26 0 0 0 4.34,9.16 c 1.83,2.44 6.21,6.3 9.6,5 3.39,-1.3 6.17,-7.79 7.52,-11 8,-18.83 11.19,-39.52 13.14,-59.78 a 10.49,10.49 0 0 0 -3.15,-9.74 c -1.75,-2.19 -3.79,-4.48 -6.55,-5 -2.76,-0.52 -5.35,0.9 -7.17,2.88 a 24.21,24.21 0 0 0 -4,7 z"
       transform="translate(42,48)"
       id="path64"
       inkscape:connector-curvature="0"
       style="fill:#ff735f" />
    <path
       class="cls-12"
       d="m 257,254.88 c -1.55,-0.43 -23.1,-5.67 -23.15,-3 q 0.24,-17.56 1.94,-35.06 a 38.54,38.54 0 0 1 2.2,-10.93 c 1.41,-3.45 3.95,-6.61 7.44,-7.94 a 14.53,14.53 0 0 1 8.14,-0.3 23.87,23.87 0 0 1 17.7,17.2 43.8,43.8 0 0 1 0.88,11.09 c -0.1,11 -0.92,22 -1.57,33 -4.65,-0.08 -9.18,-2.82 -13.58,-4.06 z"
       transform="translate(42,48)"
       id="path66"
       inkscape:connector-curvature="0"
       style="fill:#f5ba00" />
    <path
       class="cls-13"
       d="m 267.92,195.52 a 14.24,14.24 0 0 1 0.56,3.06 c 0.45,7 -4.16,12.89 -8.8,17.63 -1.81,1.86 -4.37,3.14 -6,5.08 -1.87,2.2 -1.79,5.84 -5,6.83 a 4,4 0 0 1 -4.57,-5.6 29.71,29.71 0 0 1 2.45,-5.94 c 0.9,-1.35 2.72,-2.24 4.07,-3 a 11.47,11.47 0 0 0 5.32,-7.85 c 0.85,-5.91 0,-12.58 2.05,-18.22 a 6.21,6.21 0 0 1 1.61,-2.63 3,3 0 0 1 2.89,-0.72 c 1.44,0.5 2,2.19 2.51,3.63 0.85,2.57 2.17,5.09 2.91,7.73 z"
       transform="translate(42,48)"
       id="path68"
       inkscape:connector-curvature="0"
       style="fill:#db6352" />
    <path
       class="cls-13"
       d="m 260.22,269.78 c 0.67,12.63 0.52,25.5 -2.92,37.76 -1,3.66 -2.72,8.9 -6.26,10.95 -4,2.3 -10.28,0.44 -14,-1.68 a 18.24,18.24 0 0 1 -6.35,-5.5 c -2.45,-3.73 -2.58,-8.49 -2.29,-12.95 0.76,-12 3.73,-23.13 6.05,-34.8 q 3.78,-19.06 8.86,-37.86 c 1.44,-5.35 3.3,-9.33 7.77,-12.7 3.19,-2.4 8.54,-5.58 8.84,0.67 0.89,18.66 -0.7,37.33 0.3,56.11 z"
       transform="translate(42,48)"
       id="path70"
       inkscape:connector-curvature="0"
       style="fill:#db6352" />
    <path
       class="cls-11"
       d="m 209.75,205.79 a 7.52,7.52 0 0 0 -0.89,2.11 8.79,8.79 0 0 0 0,2.94 c 0.91,7.31 2.44,14.53 10.27,16.82 a 22.29,22.29 0 0 0 16.37,-1.66 17.58,17.58 0 0 0 4.23,-3.06 7.28,7.28 0 0 0 2.13,-4.67 c 5.26,1.16 10.7,-4.2 13.43,-8 6.28,-8.81 8.36,-19.87 7.4,-30.52 -0.23,-2.61 -0.63,-5.35 -2.21,-7.45 a 15.46,15.46 0 0 0 -4.22,-3.48 c -7.2,-4.6 -14.87,-4.85 -22.73,-1.22 -7.14,3.3 -12.1,10.36 -15.46,17.22 -1.4,2.87 -1.64,6.65 -2.77,9.73 a 58.66,58.66 0 0 1 -5,10.35 z"
       transform="translate(42,48)"
       id="path72"
       inkscape:connector-curvature="0"
       style="fill:#ff735f" />
    <path
       class="cls-10"
       d="m 219.69,168.77 a 21.89,21.89 0 0 1 6.95,-9 c 5.4,-3.75 13.22,-3.05 19.31,-1.69 3.5,0.79 7,2.31 10.65,2.27 3.28,0 6.68,-3.31 9.87,-2.21 a 4.48,4.48 0 0 1 2.84,3.2 c 0.54,2.39 -0.95,4.7 -2.1,6.87 a 35.39,35.39 0 0 1 -2.84,5.07 10.17,10.17 0 0 1 -6.54,4 11.89,11.89 0 0 1 -2.6,-0.08 c -5.17,-0.54 -9.51,-2 -13.46,2.1 -2.69,2.78 -4,6.59 -6,9.85 a 5.87,5.87 0 0 1 -1.82,2.07 11.74,11.74 0 0 1 -3.55,0.91 c -5.13,1.19 -8.51,9.78 -13.93,7.93 -4.64,-1.58 -3.58,-5.8 -1.75,-9.14 2.28,-4.16 1.85,-9.21 2.54,-13.9 a 31.49,31.49 0 0 1 2.43,-8.25 z"
       transform="translate(42,48)"
       id="path74"
       inkscape:connector-curvature="0"
       style="fill:#19034d" />
    <path
       class="cls-11"
       d="m 221,188.64 a 12.77,12.77 0 0 0 -2.21,5.44 10.36,10.36 0 0 0 0,5 4.7,4.7 0 0 0 3.49,3.36 4.63,4.63 0 0 0 3.68,-1.21 c 2.39,-2.09 5.2,-8.51 4.51,-11.79 -0.99,-4.64 -7.14,-3.83 -9.47,-0.8 z"
       transform="translate(42,48)"
       id="path76"
       inkscape:connector-curvature="0"
       style="fill:#ff735f" />
    <path
       class="cls-14"
       d="m 225.7,190.36 a 5.34,5.34 0 0 0 -2.95,2.88 16.31,16.31 0 0 0 -1.1,4.08"
       transform="translate(42,48)"
       id="path78"
       inkscape:connector-curvature="0"
       style="fill:none;stroke:#19034d;stroke-miterlimit:10" />
    <path
       class="cls-10"
       d="m 259.65,191.33 a 1.18,1.18 0 0 1 -0.88,1.41 1.17,1.17 0 0 1 -1.4,-0.88 1.16,1.16 0 0 1 0.87,-1.4 1.17,1.17 0 0 1 1.41,0.87 z"
       transform="translate(42,48)"
       id="path80"
       inkscape:connector-curvature="0"
       style="fill:#19034d" />
    <path
       class="cls-10"
       d="m 246.52,192.35 a 1.17,1.17 0 0 1 -1,1.35 1.1713454,1.1713454 0 0 1 -0.39,-2.31 1.17,1.17 0 0 1 1.39,0.96 z"
       transform="translate(42,48)"
       id="path82"
       inkscape:connector-curvature="0"
       style="fill:#19034d" />
    <path
       class="cls-15"
       d="m 229.53,288.54 c -0.51,3.25 -0.91,6.53 -1.12,9.82 -0.29,4.46 -0.16,9.22 2.29,12.95 a 18.24,18.24 0 0 0 6.35,5.5 c 3.71,2.12 10,4 14,1.68 3.54,-2.05 5.24,-7.29 6.26,-10.95 a 89.46,89.46 0 0 0 3,-19 z"
       transform="translate(42,48)"
       id="path84"
       style="fill:url(#linearGradient896)"
       inkscape:connector-curvature="0" />
    <path
       class="cls-16"
       d="m 193.61,269.13 -5.46,-15.58 c 0.13,0.38 -1,2.12 -1.17,2.53 -0.41,0.9 -0.82,1.8 -1.22,2.7 -0.84,1.85 -1.68,3.7 -2.54,5.54 a 101.6,101.6 0 0 1 -5.22,10.36 14.46,14.46 0 0 1 -4.39,-2.36 c -0.54,3.16 -1.53,6.12 -2.16,9.26 -0.33,1.63 -0.63,3.26 -0.93,4.9 -0.15,0.82 -0.31,1.65 -0.47,2.48 -0.06,0.34 -0.18,2.11 -0.45,2.26 a 105,105 0 0 0 23.15,-18.33 3.84,3.84 0 0 0 1.22,-2 3.9,3.9 0 0 0 -0.36,-1.76 z"
       transform="translate(42,48)"
       id="path86"
       style="fill:url(#linear-gradient-3)"
       inkscape:connector-curvature="0" />
    <path
       class="cls-10"
       d="m 260.47,185 a 6.6,6.6 0 0 0 -4.59,1.06 1.45,1.45 0 0 0 -0.57,1.91 1.43,1.43 0 0 0 1.91,0.57 4.25,4.25 0 0 1 3.13,-0.73 1.41,1.41 0 0 0 0.12,-2.81 z"
       transform="translate(42,48)"
       id="path88"
       inkscape:connector-curvature="0"
       style="fill:#19034d" />
    <path
       class="cls-10"
       d="m 249.11,187.17 c -2,-0.9 -4.06,-0.51 -6.06,0 -1.53,0.42 -1.16,2.9 0.4,2.47 1.56,-0.43 3.19,-0.9 4.73,-0.19 1.54,0.71 2.38,-1.61 0.93,-2.28 z"
       transform="translate(42,48)"
       id="path90"
       inkscape:connector-curvature="0"
       style="fill:#19034d" />
    <path
       class="cls-17"
       d="m 231.47,213.88 c -0.11,2.61 -0.21,5.23 -0.29,7.84 0,1.36 -0.07,2.73 -0.09,4.09 0,0.25 -0.07,0.71 -0.09,1.19 a 25.81,25.81 0 0 0 4.73,-1.35 10.18,10.18 0 0 0 5.26,-4.47 14.69,14.69 0 0 0 0.91,-2.64 c -3.59,-0.73 -7.72,-2.1 -10.43,-4.66 z"
       transform="translate(42,48)"
       id="path92"
       style="fill:url(#linearGradient898)"
       inkscape:connector-curvature="0" />
    <path
       class="cls-11"
       d="m 204,319.84 c 13.54,1.61 28.47,3.37 41.49,-0.47 a 52.5,52.5 0 0 0 -6.94,-8.56 17.73,17.73 0 0 0 -9.67,-4.94 23.5,23.5 0 0 0 -5.8,0.17 c -3.37,0.41 -7.74,2.17 -11.06,1.89 -2.83,-0.23 -6.51,-2.65 -9.18,-3.71 -18.13,-7.17 -39.64,-16.94 -59.46,-11.73 -10,2.64 -16,11 -9.14,20.43 3.86,5.27 10.1,4.29 16.18,4.39 16.42,0.27 32.9,0.14 49.24,2 z"
       transform="translate(42,48)"
       id="path94"
       inkscape:connector-curvature="0"
       style="fill:#ff735f" />
    <path
       class="cls-10"
       d="m 244.87,207.78 -1,-0.25 a 13.42,13.42 0 0 1 2.26,-5 7.2,7.2 0 0 1 4.76,-2.86 4.17,4.17 0 0 1 1.72,0.13 4.38,4.38 0 0 1 2.52,2.39 l -0.9,0.42 a 3.37,3.37 0 0 0 -1.91,-1.85 3.29,3.29 0 0 0 -1.32,-0.1 6.17,6.17 0 0 0 -4.08,2.49 12.15,12.15 0 0 0 -2.05,4.63 z"
       transform="translate(42,48)"
       id="path96"
       inkscape:connector-curvature="0"
       style="fill:#19034d" />
    <path
       class="cls-18"
       d="m 170,286.54 c -0.14,-0.23 -0.27,-0.46 -0.4,-0.69 q -1.41,-2.33 -2.68,-4.73 a 29,29 0 0 1 -3.95,3.46 34.7,34.7 0 0 0 -5.18,4.5 c -1,1 -1.91,2.06 -2.84,3.12 0.25,0.57 0.48,1.14 0.72,1.73 0.12,0.28 0.25,0.56 0.37,0.85 0.63,-0.21 1.26,-0.41 1.9,-0.6 3.22,-0.93 7.46,-2.21 11,-1.7 0.19,-2 0.95,-3.81 1.1,-5.76 A 1.42,1.42 0 0 0 170,286.54 Z"
       transform="translate(42,48)"
       id="path98"
       style="fill:url(#linear-gradient-5)"
       inkscape:connector-curvature="0" />
    <path
       class="cls-13"
       d="m 248.85,211.77 a 2.07,2.07 0 0 0 -1.68,0.91 0.67,0.67 0 0 0 0.09,0.78 0.49,0.49 0 0 0 0.39,0.41 1.71,1.71 0 0 0 1.78,-0.73 0.8,0.8 0 0 0 -0.58,-1.37 z"
       transform="translate(42,48)"
       id="path100"
       inkscape:connector-curvature="0"
       style="fill:#db6352" />
    <path
       class="cls-13"
       d="m 249.87,184.22 a 8.29,8.29 0 0 0 -2.24,-0.57 c -0.64,-0.07 -0.64,0.93 0,1 a 7.46,7.46 0 0 1 2,0.53 c 0.57,0.25 0.83,-0.72 0.24,-0.96 z"
       transform="translate(42,48)"
       id="path102"
       inkscape:connector-curvature="0"
       style="fill:#db6352" />
    <path
       class="cls-13"
       d="m 256.08,182.77 -1.57,0.49 c -0.61,0.19 -0.35,1.15 0.27,1 l 1.57,-0.49 c 0.65,-0.23 0.35,-1.19 -0.27,-1 z"
       transform="translate(42,48)"
       id="path104"
       inkscape:connector-curvature="0"
       style="fill:#db6352" />
    <path
       class="cls-19"
       d="m 183.49,91.38 h 104.69 a 30.45,30.45 0 0 1 30.45,30.45 v 40.83 H 183.49 A 30.45,30.45 0 0 1 153,132.21 v -10.38 a 30.45,30.45 0 0 1 30.45,-30.45 z"
       id="path106"
       inkscape:connector-curvature="0"
       style="fill:#0648b3" />
    <path
       class="cls-2"
       d="m 143.7,179.63 h 75 a 23,23 0 0 1 23,23 v 30.87 h -98 a 23,23 0 0 1 -23,-23 v -7.85 a 23,23 0 0 1 23,-23.02 z"
       id="path108"
       inkscape:connector-curvature="0"
       style="fill:#ffffff" />
    <path
       class="cls-20"
       d="m 312.05,295.57 -25.9,-96.64 a 31.67,31.67 0 0 0 -29.89,-23.45 v 0 c -26.71,-0.58 -42.07,30.15 -25.59,51.17 27.08,34.55 57,73.35 57,73.35 z"
       transform="translate(42,48)"
       id="path120"
       style="opacity:0.49000005;fill:url(#linear-gradient-6)"
       inkscape:connector-curvature="0" />
    <path
       class="cls-19"
       d="m 143.8,306.89 a 18.93,18.93 0 0 1 -3.84,-0.38 l 0.44,-2.09 c 4.37,0.91 11.51,0 13.53,-4.2 a 4.72,4.72 0 0 0 0,-4.13 5,5 0 0 0 -3.12,-2.6 c -2.71,-0.83 -6.24,0.11 -8.53,1.4 L 141.2,293 c 2.49,-1.4 6.66,-2.66 10.21,-1.58 a 7.17,7.17 0 0 1 4.41,3.68 7,7 0 0 1 0,6 c -2,4.25 -7.37,5.79 -12.02,5.79 z"
       transform="translate(42,48)"
       id="path122"
       inkscape:connector-curvature="0"
       style="fill:#0648b3" />
    <path
       class="cls-19"
       d="m 154.54,334.24 h 34.8 v 14.16 a 13.69,13.69 0 0 1 -13.69,13.69 h -7.42 A 13.69,13.69 0 0 1 154.54,348.4 Z"
       id="path124"
       inkscape:connector-curvature="0"
       style="fill:#0648b3" />
    <path
       class="cls-2"
       d="m 157,316.23 h -53.57 a 1.61,1.61 0 0 1 -1.6,-1.61 v 0 a 1.6,1.6 0 0 1 1.6,-1.6 H 157 a 1.6,1.6 0 0 1 1.61,1.6 v 0 a 1.61,1.61 0 0 1 -1.61,1.61 z"
       transform="translate(42,48)"
       id="path126"
       inkscape:connector-curvature="0"
       style="fill:#ffffff" />
    <g
       class="cls-21"
       clip-path="url(#clip-path)"
       id="g140">
      <path
         class="cls-22"
         d="m 359.11,280.29 c 0.27,-1.92 0.93,-3.65 2.45,-4.54 2.16,-1.27 5.05,-0.21 7.57,-0.68 7.07,-1.32 7,-11.2 6.87,-16.64 -0.09,-3.46 -0.25,-6.91 -0.46,-10.37 a 5.7,5.7 0 0 0 -0.61,-2.65 3.91,3.91 0 0 0 -4.41,-1.37 c -3.09,0.88 -4.83,4.23 -5.38,7.4 -0.55,3.17 -0.28,6.47 -1.11,9.58 a 5.67,5.67 0 0 1 -0.69,1.67 3.89,3.89 0 0 1 -1.55,1.32 3,3 0 0 1 -2.87,0 c -1,-0.63 -0.82,-1.42 -0.81,-2.37 a 29.34,29.34 0 0 0 -0.29,-3.47 c -0.3,-2.6 -0.56,-5.2 -0.81,-7.81 -0.48,-5.12 -0.9,-10.25 -1.43,-15.37 a 17.62,17.62 0 0 0 -1.68,-6.86 c -5.07,-9.1 -12.79,-1.11 -13.5,5.53 -1.61,15.09 6.25,29.32 5.59,44.3 a 4.48,4.48 0 0 1 -0.35,1.85 c -1.18,2.36 -5,2 -6.71,0.59 -2.74,-2.13 -1.76,-6.75 -1.76,-9.53 0,-2.27 -0.73,-4.83 -2.93,-5.89 -2.48,-1.21 -5.73,0.24 -7.15,2.46 -1.83,2.87 -1.62,7.78 -1.35,11 a 13.56,13.56 0 0 0 2.1,6.61 8.33,8.33 0 0 0 6.15,3.63 c 1.46,0.09 3.13,-0.22 4.24,0.66 1.35,1.07 0.87,3 0.92,4.65 0.1,3.24 2.87,6 6.09,7.37 3.22,1.37 6.85,1.59 10.39,1.8 3,-4.82 3.2,-10.37 3.36,-15.76 a 57,57 0 0 1 0.12,-7.11 z"
         transform="translate(42,48)"
         id="path128"
         inkscape:connector-curvature="0"
         style="fill:#228f4e" />
      <path
         class="cls-14"
         d="m 349.57,224.55 c 3.61,25 6.72,50.5 2.28,75.42"
         transform="translate(42,48)"
         id="path130"
         inkscape:connector-curvature="0"
         style="fill:none;stroke:#19034d;stroke-miterlimit:10" />
      <path
         class="cls-14"
         d="m 346.11,224.38 c -1,4.66 -2,9.36 -2,14.11 0.05,9.06 3.86,17.73 5.36,26.69 1.68,10 0.44,20.21 -0.8,30.27"
         transform="translate(42,48)"
         id="path132"
         inkscape:connector-curvature="0"
         style="fill:none;stroke:#19034d;stroke-miterlimit:10" />
      <path
         class="cls-14"
         d="m 353.93,268.56 c 4.36,-0.62 9.56,-1.25 12.32,-4.74 a 5.09,5.09 0 0 0 0.91,-1.64 c 0.73,-2.36 0.37,-5.05 0.36,-7.48 -0.01,-2.43 0,-6.43 0,-9.45"
         transform="translate(42,48)"
         id="path134"
         inkscape:connector-curvature="0"
         style="fill:none;stroke:#19034d;stroke-miterlimit:10" />
      <path
         class="cls-14"
         d="m 350,285.18 c -3.92,0.64 -8.25,1.21 -11.63,-0.71 a 9.71,9.71 0 0 1 -4.2,-5.28 19.67,19.67 0 0 1 -0.87,-6.6 45.17,45.17 0 0 1 0.62,-7.24"
         transform="translate(42,48)"
         id="path136"
         inkscape:connector-curvature="0"
         style="fill:none;stroke:#19034d;stroke-miterlimit:10" />
      <path
         class="cls-14"
         d="m 354,272.56 a 71.22,71.22 0 0 0 14.52,-3.75 7.48,7.48 0 0 0 2.71,-1.5 6.29,6.29 0 0 0 1.43,-2.8 c 0.69,-2.26 1,-17.75 0.22,-21.53"
         transform="translate(42,48)"
         id="path138"
         inkscape:connector-curvature="0"
         style="fill:none;stroke:#19034d;stroke-miterlimit:10" />
    </g>
    <polygon
       class="cls-12"
       points="377.43,342.79 406.75,342.17 403.76,364 381.38,363.99 "
       id="polygon142"
       style="fill:#f5ba00" />
    <rect
       class="cls-2"
       x="243.72"
       y="359.59"
       width="128.74001"
       height="5.8499999"
       rx="2.5"
       id="rect144"
       style="fill:#ffffff" />
    <path
       class="cls-2"
       d="m 330.87,317.44 h -110 l 9.57,-63.22 a 4.48,4.48 0 0 1 4.36,-3.83 h 101.3 a 4.29,4.29 0 0 1 4.18,5 z"
       transform="translate(42,48)"
       id="path146"
       inkscape:connector-curvature="0"
       style="fill:#ffffff" />
    <circle
       class="cls-23"
       cx="327.89999"
       cy="327.39999"
       r="5.27"
       id="circle148"
       style="fill:none;stroke:#0648b3;stroke-width:2px;stroke-miterlimit:10" />
    <path
       class="cls-3"
       d="m 291.34,245.5 a 39.11,39.11 0 0 1 -1,-8.83 c 0,-2.9 0.45,-5 2.36,-7.19 a 40.12,40.12 0 0 1 4.69,-4.62 13.41,13.41 0 0 0 3.95,-15.12"
       transform="translate(42,48)"
       id="path150"
       inkscape:connector-curvature="0"
       style="fill:none;stroke:#ffffff;stroke-width:2px;stroke-miterlimit:10" />
    <path
       class="cls-3"
       d="m 300.57,237 c -0.58,-2.49 0.79,-5 2.53,-6.9 1.74,-1.9 3.88,-3.36 5.39,-5.42 3.24,-4.4 3.08,-8.55 2.49,-16.72 -0.42,-5.76 -0.31,-12.28 3.84,-16.28"
       transform="translate(42,48)"
       id="path152"
       inkscape:connector-curvature="0"
       style="fill:none;stroke:#ffffff;stroke-width:2px;stroke-miterlimit:10" />
    <rect
       class="cls-19"
       x="86.889999"
       y="363.26999"
       width="325.37"
       height="7.02"
       rx="3"
       id="rect154"
       style="fill:#0648b3" />
    <path
       class="cls-24"
       d="m 400,133.7 c 2.47,15.67 3.48,32.5 -3.7,46.65 -4,7.89 -10.31,14.43 -13.89,22.56 -3.82,8.67 -5.17,17.67 -6.12,27.07"
       transform="translate(42,48)"
       id="path156"
       inkscape:connector-curvature="0"
       style="fill:none;stroke:#e1e8f6;stroke-width:2px;stroke-miterlimit:10" />
    <path
       class="cls-24"
       d="m 76.29,107.46 c -10,12.06 -24.83,18.9 -36.83,29 A 86.51,86.51 0 0 0 9.05,203.35"
       transform="translate(42,48)"
       id="path158"
       inkscape:connector-curvature="0"
       style="fill:none;stroke:#e1e8f6;stroke-width:2px;stroke-miterlimit:10" />
    <path
       class="cls-24"
       d="m 295.26,7.35 a 62,62 0 0 1 37.22,33"
       transform="translate(42,48)"
       id="path160"
       inkscape:connector-curvature="0"
       style="fill:none;stroke:#e1e8f6;stroke-width:2px;stroke-miterlimit:10" />
    <path
       class="cls-24"
       d="m 67.69,341.79 a 135,135 0 0 0 79.84,33"
       transform="translate(42,48)"
       id="path162"
       inkscape:connector-curvature="0"
       style="fill:none;stroke:#e1e8f6;stroke-width:2px;stroke-miterlimit:10" />
    <path
       class="cls-24"
       d="m 287.11,347.58 a 170.18,170.18 0 0 0 15.68,-8"
       transform="translate(42,48)"
       id="path164"
       inkscape:connector-curvature="0"
       style="fill:none;stroke:#e1e8f6;stroke-width:2px;stroke-miterlimit:10" />
    <path
       class="cls-24"
       d="m 214.13,362.29 c 21.27,-0.93 39.73,-2 62.66,-11"
       transform="translate(42,48)"
       id="path166"
       inkscape:connector-curvature="0"
       style="fill:none;stroke:#e1e8f6;stroke-width:2px;stroke-miterlimit:10" />
    <text
       class="cls-25"
       transform="translate(187.54,148.29)"
       id="text168"
       style="font-weight:700;font-size:60px;font-family:OpenSans-Bold, 'Open Sans';fill:#ffffff">401</text>
    <text
       xml:space="preserve"
       style="font-style:normal;font-weight:normal;font-size:40px;line-height:1.25;font-family:sans-serif;letter-spacing:0px;word-spacing:0px;fill:#0648b3;fill-opacity:1;stroke:none"
       x="130.70988"
       y="212.36334"
       id="text179"><tspan
         sodipodi:role="line"
         id="tspan177"
         x="130.70988"
         y="212.36334"
         style="font-style:normal;font-variant:normal;font-weight:bold;font-stretch:normal;font-size:13.33333302px;line-height:0;font-family:sans-serif;-inkscape-font-specification:'sans-serif Bold';fill:#0648b3;fill-opacity:1">Accès interdit</tspan></text>
  </g>
</svg>
