<svg width="119" height="103" viewBox="0 0 119 103" fill="none" xmlns="http://www.w3.org/2000/svg">
<path d="M93.2562 19.94L91.8906 20.7284L89.7466 17.0149C87.2743 12.7328 81.7793 11.2606 77.4972 13.7329L75.5602 14.8512C72.9764 12.2743 68.8858 11.6323 65.5782 13.5419C61.6266 15.8234 60.2678 20.894 62.5492 24.8456L69.396 36.7046L41.6056 52.7494L34.7588 40.8904C32.4774 36.9388 27.4067 35.5803 23.4553 37.8616C20.1478 39.7712 18.6585 43.6347 19.5983 47.1608L17.6611 48.2792C13.379 50.7515 11.9065 56.2465 14.3788 60.5286L16.5228 64.2421L15.1572 65.0305C12.1426 66.771 11.1061 70.6398 12.8465 73.6542L16.4215 79.8464C18.162 82.861 22.0305 83.8974 25.0451 82.1569L26.4109 81.3684L28.5663 85.1017C31.0386 89.3838 36.5336 90.8561 40.8158 88.3838L42.7529 87.2654C45.3367 89.8423 49.4273 90.4843 52.7348 88.5747C56.6863 86.2933 58.045 81.2228 55.7635 77.2712L48.9167 65.4122L72.7399 51.6579C73.4604 51.2419 73.7071 50.3211 73.2912 49.6007C72.8752 48.8802 71.9544 48.6335 71.234 49.0495L47.4106 62.8039L43.1115 55.3576L70.9019 39.3128L83.5539 61.2267C85.8353 65.1782 90.906 66.5368 94.8576 64.2553C98.1652 62.3457 99.6545 58.4821 98.7147 54.9561L100.652 53.8377C104.934 51.3654 106.406 45.8705 103.934 41.5883L101.779 37.855L103.144 37.0666C106.159 35.3261 107.196 31.4577 105.455 28.4431L101.88 22.2509C100.139 19.2361 96.2708 18.1995 93.2562 19.94ZM24.9051 78.7604L23.5394 79.5489L23.5393 79.5487C21.9629 80.4588 19.94 79.9168 19.03 78.3406L15.455 72.1484C14.5449 70.5721 15.0869 68.5492 16.6632 67.6391L18.029 66.8506L24.9051 78.7604ZM53.155 78.7774C54.606 81.2906 53.7418 84.5157 51.2287 85.9666C48.7154 87.4177 45.4905 86.5534 44.0395 84.0403L28.847 57.726C28.4311 57.0056 27.5101 56.759 26.7898 57.1748C26.0696 57.5907 25.8227 58.5116 26.2386 59.232L41.0002 84.7999L39.31 85.7758C36.4661 87.4177 32.8167 86.4398 31.1749 83.5961L16.9872 59.0224C15.3453 56.1785 16.3233 52.5292 19.1672 50.8873L20.8574 49.9115L22.9027 53.454C23.3186 54.1745 24.2396 54.4211 24.9599 54.0053C25.6802 53.5894 25.9271 52.6685 25.5111 51.9481L23.0348 47.659C21.5839 45.1459 22.448 41.9208 24.9611 40.4698C27.4744 39.0188 30.6994 39.883 32.1503 42.3962L53.155 78.7774ZM95.2781 54.4577C96.7291 56.9708 95.8649 60.1959 93.3516 61.6469C90.8383 63.098 87.6132 62.2338 86.1623 59.7207L65.1575 23.3394C63.7066 20.8263 64.5708 17.6012 67.084 16.1502C69.5973 14.6991 72.8224 15.5633 74.2734 18.0764L95.2781 54.4577ZM101.326 43.0943C102.967 45.938 101.99 49.5874 99.1458 51.2293L97.4555 52.2052L77.3128 17.3169L79.003 16.3411C81.8469 14.6992 85.4963 15.677 87.1381 18.5207L101.326 43.0943ZM102.847 29.949C103.757 31.5252 103.215 33.5481 101.638 34.4582L100.273 35.2466L93.3966 23.3368L94.7622 22.5484C96.3385 21.6383 98.3614 22.1803 99.2715 23.7567L102.847 29.949Z" fill="#062484"/>
</svg>
