<svg id="Capa_1" enable-background="new 0 0 512 512" height="512" viewBox="0 0 512 512" width="512" xmlns="http://www.w3.org/2000/svg"><g><g clip-rule="evenodd" fill-rule="evenodd"><path d="m406.89 131.305h14.684c23.613 0 42.945 19.332 42.945 42.943v128.723h-140.118v-46.148-57.996c0-4.877-3.855-6.492-7.314-3.033l-65.142 65.055c-8.844 8.844-22.876 8.73-32.202 0-10.29-9.639-6.86-25.371 0-32.201l90.824-90.738c4.648-4.619 10.687-6.859 17.064-6.604 3.431-.001 75.857-.001 79.259-.001z" fill="#ebd2ff"/><path d="m142.443 483.934h316.888c2.863 0 5.188-2.324 5.188-5.158v-134.817c0-2.863-2.324-5.188-5.188-5.188h-316.888c-2.835 0-5.159 2.353-5.159 5.188v134.816c0 2.834 2.324 5.159 5.159 5.159z" fill="#d09080"/><path d="m142.443 354.277h356.886c2.862 0 5.188-2.324 5.188-5.16v-46.146c0-2.836-2.325-5.16-5.188-5.16h-356.886c-2.835 0-5.159 2.324-5.159 5.16v46.146c0 2.836 2.324 5.16 5.159 5.16z" fill="#d8a595"/><path d="m43.116 288.94h99.327c2.834 0 5.159 2.324 5.159 5.188v184.648c0 2.834-2.324 5.158-5.159 5.158h-99.327c-2.835 0-5.159-2.324-5.159-5.158v-184.649c0-2.863 2.324-5.187 5.159-5.187z" fill="#6aa2e6"/><path d="m50.458 131.305c-23.641 0-42.945 19.332-42.945 42.943v93.09c0 16.838 13.634 30.473 30.444 30.473h109.645v-98.984c0-4.537 3.686-6.861 7.03-3.516l65.424 65.537c8.872 8.844 22.876 8.73 32.202 0 10.29-9.639 6.86-25.371 0-32.201l-90.823-90.738c-4.649-4.619-10.687-6.859-17.037-6.604-31.322 0-62.646 0-93.94 0z" fill="#a5cdff"/><path d="m123.337 297.81h24.264v-98.984c0-2.666 1.276-4.564 2.977-5.018-24.35.141-27.241 18.766-27.241 18.766z" fill="#8abfff"/><path d="m137.227 99.613c0 24.123-19.758 43.879-43.881 43.879s-43.853-19.756-43.853-43.879v-47c0-13.492 11.055-24.547 24.548-24.547h38.637c13.493 0 24.548 11.027 24.548 24.547v47z" fill="#ffcbbe"/><path d="m425.4 99.613c0 24.123-19.729 43.879-43.881 43.879-24.123 0-43.853-19.756-43.853-43.879v-47c0-13.492 11.056-24.547 24.548-24.547h38.638c13.492 0 24.548 11.055 24.548 24.547z" fill="#ffcbbe"/><path d="m337.667 52.613v17.067c12.359 4.619 22.706.736 28.63-2.637 4.621-2.637 5.386-3.146 9.95.879 21.062 18.424 49.153 8.191 49.153 8.191v-23.5c0-13.492-11.056-24.547-24.548-24.547h-38.638c-13.491 0-24.547 11.055-24.547 24.547z" fill="#ffe5a0"/><path d="m387.784 130.256c-5.131 5.271-11.565 9.24-18.794 11.395 3.996 1.191 8.191 1.842 12.529 1.842 12.246 0 23.358-5.072 31.323-13.236 7.768-7.91 12.558-18.738 12.558-30.643v-23.5s-11.367 4.139-25.059 2.41v21.09c.001 11.904-4.789 22.732-12.557 30.642z" fill="#f7beaf"/><path d="m400.342 52.613v25.91c13.691 1.729 25.059-2.41 25.059-2.41v-23.5c0-13.492-11.056-24.547-24.548-24.547h-25.06c13.494 0 24.549 11.055 24.549 24.547z" fill="#f2ce7e"/><path d="m49.494 52.613v26.789c0 13.492 11.055 24.547 24.548 24.547h38.637c13.465 0 24.492-10.998 24.548-24.434v-26.902c0-13.52-11.055-24.547-24.548-24.547h-38.637c-13.493 0-24.548 11.028-24.548 24.547z" fill="#c68b87"/><path d="m112.736 103.949c-1.786 18-14.571 32.91-31.522 37.814 3.855 1.135 7.937 1.729 12.132 1.729 24.123 0 43.881-19.756 43.881-43.879v-20.097c-.057 13.435-11.055 24.406-24.491 24.433z" fill="#f7beaf"/><path d="m112.962 52.613v47c0 1.473-.085 2.92-.227 4.336 13.436-.027 24.435-10.998 24.491-24.434v-26.902c0-13.52-11.055-24.547-24.548-24.547h-24.264c13.493 0 24.548 11.028 24.548 24.547z" fill="#bd7d79"/><path d="m440.254 169.09v128.72h24.265v-123.562c0-23.611-19.332-42.943-42.945-42.943h-3.911c13.406 7.285 22.591 21.513 22.591 37.785z" fill="#d7bef0"/><path d="m317.088 166.34-63.639 63.609c5.443 6.662 7.965 19.049 1.333 28.092l62.307-62.248c3.458-3.459 7.314-1.844 7.314 3.033v-29.453c-.002-4.848-3.857-6.463-7.315-3.033z" fill="#d7bef0"/><path d="m137.17 137.908 86.713 86.627 4.11 4.111c6.86 6.83 10.29 22.562 0 32.201-1.275 1.189-2.636 2.238-4.053 3.117.935.596 1.899 1.105 2.891 1.561 2.948 1.275 6.066 1.898 9.184 1.926 3.09-.027 6.208-.65 9.156-1.926 2.551-1.107 4.932-2.666 7.086-4.678.964-.879 1.786-1.844 2.523-2.807 6.633-9.043 4.11-21.43-1.333-28.092-.397-.482-.765-.906-1.19-1.303l-16.243-16.244-74.58-74.494c-4.649-4.619-10.687-6.859-17.037-6.604h-20.778c-.028.027-.085.057-.113.084 5.104.541 9.837 2.722 13.664 6.521z" fill="#8abfff"/><path d="m440.254 354.277v124.498c0 2.834-2.324 5.158-5.188 5.158h24.265c2.863 0 5.188-2.324 5.188-5.158v-124.498z" fill="#be694f"/><path d="m480.252 302.971v46.146c0 2.836-2.324 5.16-5.188 5.16h24.265c2.862 0 5.188-2.324 5.188-5.16v-46.146c0-2.836-2.325-5.16-5.188-5.16h-24.265c2.864-.001 5.188 2.324 5.188 5.16z" fill="#d09080"/><path d="m123.337 297.81v180.965c0 2.834-2.325 5.158-5.159 5.158h24.208.057c2.834 0 5.159-2.324 5.159-5.158v-124.498-15.506-40.961z" fill="#5a94db"/></g><path d="m60.208 138.787h-9.751c-9.751 0-18.595 3.998-25.03 10.432-6.435 6.436-10.432 15.279-10.432 25.029v29.566c0 4.139-3.345 7.482-7.483 7.482-4.139 0-7.512-3.344-7.512-7.482v-29.566c0-13.889 5.669-26.504 14.825-35.631 8.618-8.617 20.325-14.174 33.28-14.768-3.912-7.229-6.123-15.479-6.123-24.236v-47c0-8.814 3.6-16.836 9.411-22.649 5.811-5.81 13.833-9.41 22.649-9.41h38.637c8.816 0 16.838 3.6 22.649 9.41 5.783 5.813 9.383 13.834 9.383 22.649v47c0 8.731-2.183 16.979-6.066 24.18h5.754c4.11 0 8.165.566 11.935 2.041 3.827 1.473 7.342 3.74 10.375 6.773l69.336 69.25 22.025-22.053c2.948-2.92 7.682-2.92 10.63 0 2.92 2.947 2.92 7.682 0 10.602l-22.054 22.053 10.885 10.887c3.714 3.684 6.265 8.674 7.598 13.691l53.604-53.463c1.36-1.586 3.401-2.578 5.67-2.578 4.138 0 7.512 3.344 7.512 7.482v101.82h84.303v-98.928c0-4.139 3.346-7.514 7.512-7.514 4.139 0 7.484 3.375 7.484 7.514v98.928h25.795v-116.05c0-9.75-3.997-18.594-10.403-25.029-6.435-6.434-15.308-10.432-25.03-10.432h-6.916c-8.958 7.598-20.523 12.189-33.138 12.189-12.614 0-24.208-4.592-33.166-12.217-8.277-.113-25.597-2.41-33.278 5.271l-20.808 20.807c-2.948 2.92-7.682 2.92-10.602 0-2.948-2.92-2.948-7.682 0-10.602l21.602-21.629c3.032-3.004 6.548-5.272 10.402-6.773 3.827-1.475 7.881-2.154 11.963-2.041h8.617c-3.884-7.201-6.095-15.449-6.095-24.18v-47c0-8.814 3.601-16.836 9.411-22.649 5.811-5.81 13.833-9.41 22.648-9.41h38.638c8.815 0 16.838 3.6 22.648 9.41 5.783 5.813 9.411 13.834 9.411 22.649v47c0 8.844-2.268 17.178-6.236 24.434 11.849 1.219 22.507 6.549 30.529 14.57 9.128 9.127 14.798 21.742 14.798 35.631v116.051h32.514c4.139 0 7.483 3.373 7.483 7.512v56.467c0 4.139-3.345 7.512-7.483 7.512h-32.514v122.145c0 4.139-3.346 7.512-7.484 7.512h-426.563c-4.139 0-7.483-3.373-7.483-7.512v-179.377c-7.483-1.502-14.174-5.186-19.361-10.373-6.861-6.862-11.113-16.358-11.113-26.846v-29.564c0-4.139 3.374-7.484 7.512-7.484s7.483 3.346 7.483 7.484v29.564c0 6.35 2.58 12.076 6.719 16.244 4.167 4.166 9.921 6.717 16.242 6.717h2.835v-98.928c0-4.139 3.373-7.514 7.512-7.514s7.483 3.375 7.483 7.514v98.928h84.332v-101.82c0-4.139 3.345-7.482 7.483-7.482 2.297 0 4.31.992 5.698 2.607l72.029 71.943c2.948 2.947 6.747 4.393 10.602 4.393 3.969 0 7.994-1.529 11.197-4.535l.34-.311c3.005-3.033 4.025-7.031 3.742-10.857-.284-4.053-1.871-7.795-4.025-10.092l-.199-.197c-30.274-30.246-60.549-60.492-90.823-90.738-3.742-3.742-7.229-4.422-12.218-4.422h-17.461c-8.958 7.598-20.523 12.189-33.138 12.189-12.585 0-24.179-4.592-33.137-12.19zm357.681-53.262c-11.537 1.785-31.067 1.926-47.113-12.473-5.527 3.316-14.569 7.143-25.625 6.008v20.553c0 10.006 4.11 19.076 10.715 25.682 6.576 6.604 15.676 10.686 25.654 10.686 10.007 0 19.107-4.082 25.683-10.686 6.605-6.605 10.687-15.676 10.687-25.682v-14.088zm-72.739-21.515c7.597 1.246 15.874-1.305 21.601-6.379 3.118-2.691 7.852-2.352 10.544.766 13.268 15.25 31.807 13.805 40.594 11.99v-17.774c0-4.676-1.899-8.957-5.018-12.047-3.09-3.09-7.342-5.018-12.019-5.018h-38.638c-4.677 0-8.929 1.928-12.047 5.018-3.09 3.09-5.018 7.371-5.018 12.047v11.397zm-288.173 15.363c.085 4.621 1.758 8.787 5.017 12.076 3.119 3.09 7.371 4.988 12.047 4.988h38.637c4.677 0 8.929-1.898 12.019-4.988s5.018-7.342 5.018-12.02v-26.816c0-4.676-1.899-8.957-5.018-12.047-3.09-3.09-7.342-5.018-12.019-5.018h-38.636c-4.677 0-8.929 1.928-12.047 5.018-3.09 3.09-5.017 7.371-5.017 12.047v26.76zm72.001 27.609c-4.79 2.834-10.375 4.479-16.299 4.479h-38.637c-5.953 0-11.509-1.645-16.299-4.479 1.474 7.059 4.989 13.379 9.921 18.312 6.605 6.604 15.704 10.686 25.682 10.686 10.006 0 19.106-4.082 25.682-10.686 4.933-4.933 8.476-11.253 9.95-18.312zm195.168 254.807c-4.138 0-7.512-3.373-7.512-7.512s3.374-7.484 7.512-7.484h172.859v-41.498c-113.955 0-227.938 0-341.891 0v41.498h132.86c4.139 0 7.512 3.346 7.512 7.484 0 4.139-3.373 7.512-7.512 7.512h-132.86v114.662h301.893v-114.662zm-169.032-71.49h161.774v-83.764l-56.099 55.928c-6.803 6.775-15.25 12.473-24.859 12.473-7.654 0-15.251-2.891-21.147-8.787l-59.669-59.613zm-69.818 186.152v-138.699c0-4.139 3.345-7.484 7.483-7.484 4.139 0 7.512 3.346 7.512 7.484v138.699h39.827v-171.156h-94.65v171.156z"/></g></svg>