<svg width="65" height="105" viewBox="0 0 65 105" fill="none" xmlns="http://www.w3.org/2000/svg">
<path d="M59.0576 51.2663C62.1674 51.2663 64.6973 48.7365 64.6973 45.6267V35.3728C64.6973 32.263 62.1674 29.7331 59.0576 29.7331C58.1356 29.7331 57.264 29.9558 56.4941 30.35V11.792C56.4941 5.28957 51.2046 0 44.7021 0H20.0928C13.5904 0 8.30078 5.28957 8.30078 11.792V13.0737C8.30078 13.9229 8.98972 14.6118 9.83887 14.6118C10.688 14.6118 11.377 13.9229 11.377 13.0737V11.792C11.377 6.98627 15.2871 3.07617 20.0928 3.07617H44.7021C49.5079 3.07617 53.418 6.98627 53.418 11.792V36.4014C53.418 41.2071 49.5079 45.1172 44.7021 45.1172H20.0928C15.2871 45.1172 11.377 41.2071 11.377 36.4014V19.6362C11.377 18.7871 10.688 18.0981 9.83887 18.0981C8.98972 18.0981 8.30078 18.7871 8.30078 19.6362V30.35C7.53094 29.9558 6.65936 29.7331 5.7373 29.7331C2.62749 29.7331 0.0976562 32.263 0.0976562 35.3728V45.6267C0.0976562 48.7365 2.62749 51.2663 5.7373 51.2663C8.84712 51.2663 11.377 48.7365 11.377 45.6267V44.3361C13.5351 46.7049 16.6433 48.1934 20.0928 48.1934H27.7832V57.5244H7.78809C3.54713 57.5244 0.0976562 60.9739 0.0976562 65.2148C0.0976562 69.4558 3.54713 72.9053 7.78809 72.9053H20.6055V75.4688C20.6055 77.4474 22.2157 79.0576 24.1943 79.0576H27.7832V79.5535C27.7832 80.4026 28.4721 81.0916 29.3213 81.0916C30.1704 81.0916 30.8594 80.4026 30.8594 79.5535V79.0576H33.9355V88.5938H30.8594V86.1328C30.8594 85.2837 30.1704 84.5947 29.3213 84.5947C28.4721 84.5947 27.7832 85.2837 27.7832 86.1328V88.5938H17.1191C15.0435 88.5938 13.2523 89.9195 12.5818 91.7885C9.50481 92.3781 7.17285 95.089 7.17285 98.335C7.17285 102.01 10.1625 105 13.8379 105C17.5133 105 20.5029 102.01 20.5029 98.335C20.5029 98.1627 20.4965 97.9921 20.4837 97.8223H25.7516C25.7388 97.9913 25.7324 98.1627 25.7324 98.335C25.7324 102.01 28.7221 105 32.3975 105C36.0728 105 39.0625 102.01 39.0625 98.335C39.0625 98.1627 39.0561 97.9913 39.0433 97.8223H44.3112C44.2984 97.9921 44.292 98.1627 44.292 98.335C44.292 102.01 47.2816 105 50.957 105C54.6324 105 57.6221 102.01 57.6221 98.335C57.6221 95.0898 55.2901 92.3781 52.2139 91.7885C51.5434 89.9203 49.7522 88.5938 47.6758 88.5938H37.0117V79.0576H40.6006C42.5793 79.0576 44.1895 77.4474 44.1895 75.4688V72.9053H57.0068C61.2478 72.9053 64.6973 69.4558 64.6973 65.2148C64.6973 60.9739 61.2478 57.5244 57.0068 57.5244H52.1194C51.2695 57.5244 50.5813 58.2133 50.5813 59.0625C50.5813 59.9117 51.2695 60.6006 52.1194 60.6006H57.0068C59.5511 60.6006 61.6211 62.6706 61.6211 65.2148C61.6211 67.7591 59.5511 69.8291 57.0068 69.8291H7.78809C5.24384 69.8291 3.17383 67.7591 3.17383 65.2148C3.17383 62.6706 5.24384 60.6006 7.78809 60.6006H45.5225C46.3724 60.6006 47.0605 59.9117 47.0605 59.0625C47.0605 58.2133 46.3724 57.5244 45.5225 57.5244H37.0117V48.1934H44.7021C48.1516 48.1934 51.2598 46.7049 53.418 44.3361V45.6267C53.418 48.7365 55.9478 51.2663 59.0576 51.2663ZM8.30078 45.6267C8.30078 47.0406 7.15122 48.1902 5.7373 48.1902C4.32339 48.1902 3.17383 47.0406 3.17383 45.6267V35.3728C3.17383 33.9597 4.32339 32.8093 5.7373 32.8093C7.15122 32.8093 8.30078 33.9597 8.30078 35.3728V45.6267ZM17.4268 98.335C17.4268 100.314 15.8166 101.924 13.8379 101.924C11.8592 101.924 10.249 100.314 10.249 98.335C10.249 96.9066 11.0878 95.6713 12.2998 95.0938V96.2842C12.2998 97.1333 12.9887 97.8223 13.8379 97.8223H17.3907C17.4147 97.9905 17.4268 98.1619 17.4268 98.335ZM32.3975 101.924C30.4188 101.924 28.8086 100.314 28.8086 98.335C28.8086 96.3563 30.4188 94.7461 32.3975 94.7461C34.3761 94.7461 35.9863 96.3563 35.9863 98.335C35.9863 100.314 34.3761 101.924 32.3975 101.924ZM54.5459 98.335C54.5459 100.314 52.9357 101.924 50.957 101.924C48.9783 101.924 47.3682 100.314 47.3682 98.335C47.3682 98.1619 47.3802 97.9905 47.4042 97.8223H50.957C51.807 97.8223 52.4951 97.1333 52.4951 96.2842V95.093C53.7064 95.6697 54.5459 96.9058 54.5459 98.335ZM49.4157 93.3033C49.4181 93.3394 49.4189 93.3762 49.4189 93.4131V94.7461H46.2875C46.2675 94.7453 46.2474 94.7453 46.2282 94.7461H38.0115C36.8259 92.8972 34.7527 91.6699 32.3975 91.6699C30.0431 91.6699 27.9691 92.8972 26.7834 94.7461H18.5683C18.5475 94.7453 18.5275 94.7453 18.5074 94.7461H15.376V93.4131C15.376 93.3746 15.3768 93.3378 15.3792 93.3033C15.4361 92.3869 16.2003 91.6699 17.1191 91.6699H47.6758C48.5946 91.6699 49.3589 92.3869 49.4157 93.3033ZM41.1133 72.9053V75.4688C41.1133 75.7515 40.8834 75.9814 40.6006 75.9814H24.1943C23.9116 75.9814 23.6816 75.7515 23.6816 75.4688V72.9053H41.1133ZM33.9355 57.5244H30.8594V48.1934H33.9355V57.5244ZM59.0576 32.8093C60.4715 32.8093 61.6211 33.9597 61.6211 35.3728V45.6267C61.6211 47.0406 60.4715 48.1902 59.0576 48.1902C57.6437 48.1902 56.4941 47.0406 56.4941 45.6267V35.3728C56.4941 33.9597 57.6437 32.8093 59.0576 32.8093Z" fill="#062484"/>
</svg>
