<svg width="132" height="124" viewBox="0 0 132 124" fill="none" xmlns="http://www.w3.org/2000/svg">
<path d="M112.664 14.8153C115.149 14.8153 117.164 12.8006 117.164 10.3153C117.164 7.83 115.149 5.81528 112.664 5.81528C110.178 5.81528 108.164 7.83 108.164 10.3153C108.164 12.8006 110.178 14.8153 112.664 14.8153Z" fill="#AABCC9"/>
<path d="M3.17917 103.407C3.46387 103.407 3.70112 103.17 3.70112 102.885V101.653C3.70112 101.368 3.46387 101.131 3.17917 101.131C2.89447 101.131 2.65723 101.368 2.65723 101.653V102.885C2.65723 103.17 2.89447 103.407 3.17917 103.407Z" fill="#AABCC9"/>
<path d="M4.6027 104.687H5.83639C6.12109 104.687 6.35834 104.45 6.35834 104.165C6.35834 103.881 6.12109 103.644 5.83639 103.644H4.6027C4.318 103.644 4.08075 103.881 4.08075 104.165C4.0333 104.45 4.27055 104.687 4.6027 104.687Z" fill="#AABCC9"/>
<path d="M3.17917 107.247C3.46387 107.247 3.70112 107.009 3.70112 106.725V105.492C3.70112 105.208 3.46387 104.971 3.17917 104.971C2.89447 104.971 2.65723 105.208 2.65723 105.492V106.725C2.65723 107.009 2.89447 107.247 3.17917 107.247Z" fill="#AABCC9"/>
<path d="M0.521949 104.781H1.75564C2.04034 104.781 2.27759 104.544 2.27759 104.26C2.27759 103.975 2.04034 103.738 1.75564 103.738H0.521949C0.23725 103.738 0 103.975 0 104.26C0 104.544 0.23725 104.781 0.521949 104.781Z" fill="#AABCC9"/>
<path d="M54.3252 3.83995C54.0405 3.83995 53.8032 4.07698 53.8032 4.36142V5.594C53.8032 5.87844 54.0405 6.11548 54.3252 6.11548C54.6099 6.11548 54.8471 5.87844 54.8471 5.594V4.36142C54.8471 4.07698 54.6099 3.83995 54.3252 3.83995Z" fill="#AABCC9"/>
<path d="M52.9021 2.60738H51.6684C51.3837 2.60738 51.1465 2.84441 51.1465 3.12885C51.1465 3.41329 51.3837 3.65032 51.6684 3.65032H52.9021C53.1868 3.65032 53.4241 3.41329 53.4241 3.12885C53.4715 2.84441 53.2343 2.60738 52.9021 2.60738Z" fill="#AABCC9"/>
<path d="M54.3252 0C54.0405 0 53.8032 0.237037 53.8032 0.521477V1.75405C53.8032 2.03849 54.0405 2.27553 54.3252 2.27553C54.6099 2.27553 54.8471 2.03849 54.8471 1.75405V0.521477C54.8471 0.237037 54.6099 0 54.3252 0Z" fill="#AABCC9"/>
<path d="M56.9827 2.51254H55.749C55.4643 2.51254 55.2271 2.74958 55.2271 3.03402C55.2271 3.31846 55.4643 3.5555 55.749 3.5555H56.9827C57.2674 3.5555 57.5046 3.31846 57.5046 3.03402C57.5046 2.74958 57.2674 2.51254 56.9827 2.51254Z" fill="#AABCC9"/>
<path d="M5.25881 47.8153C5.25881 47.8153 5.68738 50.9136 2.16357 50.8645C2.16357 50.8645 5.16357 50.9136 5.11595 53.8153C5.11595 53.8153 5.40167 51.5038 8.16357 51.012C8.11595 51.012 5.78262 51.553 5.25881 47.8153Z" fill="#AABCC9"/>
<path d="M121.959 105.274C121.135 105.274 120.448 105.96 120.448 106.784V110.352C120.448 111.176 121.135 111.862 121.959 111.862C122.784 111.862 123.471 111.176 123.471 110.352V106.784C123.471 105.96 122.784 105.274 121.959 105.274Z" fill="#AABCC9"/>
<path d="M117.838 101.705H114.266C113.442 101.705 112.755 102.392 112.755 103.215C112.755 104.039 113.442 104.725 114.266 104.725H117.838C118.662 104.725 119.349 104.039 119.349 103.215C119.486 102.392 118.799 101.705 117.838 101.705Z" fill="#AABCC9"/>
<path d="M121.959 94.1565C121.135 94.1565 120.448 94.8428 120.448 95.6663V99.2349C120.448 100.058 121.135 100.745 121.959 100.745C122.784 100.745 123.471 100.058 123.471 99.2349V95.6663C123.471 94.8428 122.784 94.1565 121.959 94.1565Z" fill="#AABCC9"/>
<path d="M129.652 101.431H126.08C125.256 101.431 124.569 102.117 124.569 102.941C124.569 103.764 125.256 104.45 126.08 104.45H129.652C130.477 104.45 131.163 103.764 131.163 102.941C131.163 102.117 130.477 101.431 129.652 101.431Z" fill="#AABCC9"/>
<g clip-path="url(#clip0)">
<path d="M111.165 38.0641C110.824 35.7712 109.284 33.7968 107.146 32.9113L67.5345 16.5073C65.9 15.8308 64.0998 15.8308 62.4653 16.5073L22.8537 32.9113C20.7155 33.7968 19.1754 35.7712 18.8345 38.0641C18.0028 43.6594 16.6085 58.463 21.609 75.0372C24.39 84.2545 28.7477 92.7372 34.5612 100.249C41.5398 109.267 50.6975 116.978 61.7799 123.168C62.773 123.723 63.8864 124 64.9999 124C66.1132 124 67.2268 123.723 68.2199 123.168C79.3023 116.978 88.4599 109.267 95.4386 100.249C101.252 92.737 105.61 84.2543 108.391 75.037C113.391 58.463 111.997 43.6594 111.165 38.0641ZM105.365 74.124C99.4234 93.817 86.4077 109.389 66.679 120.409C65.6439 120.987 64.3572 120.987 63.3215 120.409C43.5925 109.389 30.5764 93.817 24.6349 74.124C19.819 58.1616 21.1605 43.9134 21.9608 38.5286C22.1393 37.3279 22.9449 36.2943 24.063 35.8315L63.6746 19.4275C64.1019 19.2506 64.551 19.162 65.0001 19.162C65.449 19.162 65.8983 19.2506 66.3256 19.4275L105.937 35.8315C107.055 36.2945 107.861 37.3279 108.039 38.5286C108.839 43.9136 110.181 58.1618 105.365 74.124Z" fill="#062484"/>
<path d="M98.9622 40.3373L83.48 34.0189C82.6714 33.6894 81.7492 34.0769 81.4197 34.885C81.0903 35.6931 81.4777 36.6155 82.2859 36.9452L97.768 43.2637C98.5628 43.5879 99.1347 44.308 99.2606 45.1427C99.9 49.3815 100.972 60.5972 97.1243 73.1638C92.3784 88.6654 81.9758 100.927 66.2057 109.608C65.4623 110.017 64.5384 110.017 63.7951 109.608C48.0247 100.927 37.6222 88.6656 32.8763 73.1638C29.0286 60.5975 30.1001 49.3817 30.7395 45.1427C30.8654 44.3078 31.4373 43.5879 32.2323 43.2637L64.0471 30.2798C64.6525 30.0326 65.3478 30.0324 65.9534 30.2798L75.5084 34.1794C76.3167 34.5089 77.2392 34.1212 77.5687 33.3133C77.8983 32.5052 77.5107 31.5828 76.7025 31.2531L67.1473 27.3535C65.7625 26.7884 64.2376 26.7888 62.8528 27.3535L31.038 40.3373C29.2173 41.0803 27.9053 42.7412 27.6142 44.6715C26.9428 49.1237 25.8168 60.9029 29.854 74.089C32.0998 81.4248 35.6189 88.1756 40.3135 94.1538C45.9453 101.325 53.3328 107.456 62.2708 112.376C63.1127 112.84 64.0562 113.071 65.0002 113.071C65.9439 113.071 66.8878 112.84 67.7295 112.376C76.6677 107.457 84.0552 101.325 89.6868 94.1538C94.3812 88.1756 97.9003 81.4246 100.146 74.089C104.183 60.9027 103.057 49.1235 102.386 44.6715C102.095 42.741 100.783 41.0803 98.9622 40.3373Z" fill="#062484"/>
<path d="M61.8504 89.1647H68.1496C70.4046 89.1647 72.2393 87.3388 72.2393 85.0945V78.109C72.2393 77.6074 72.6559 77.1993 73.1683 77.1993H80.2085C82.4636 77.1993 84.2982 75.3734 84.2982 73.1292V66.8792C84.2982 64.6348 82.4636 62.8089 80.2085 62.8089H73.1683C72.6559 62.8089 72.2393 62.401 72.2393 61.8993V54.9137C72.2393 52.6696 70.4048 50.8437 68.1496 50.8437H61.8504C59.5955 50.8437 57.7607 52.6694 57.7607 54.9137V61.8993C57.7607 62.4007 57.3439 62.8089 56.8318 62.8089H49.7913C47.5364 62.8089 45.7017 64.6348 45.7017 66.8792V73.1292C45.7017 75.166 47.2305 76.901 49.2579 77.1649C50.1238 77.2788 50.916 76.6671 51.0289 75.8018C51.1415 74.9363 50.5311 74.1436 49.6658 74.0308C49.2079 73.9711 48.8623 73.5836 48.8623 73.1294V66.8794C48.8623 66.3778 49.2792 65.9696 49.7913 65.9696H56.8318C59.0867 65.9696 60.9214 64.1437 60.9214 61.8996V54.9139C60.9214 54.4125 61.3382 54.0044 61.8504 54.0044H68.1496C68.662 54.0044 69.0786 54.4123 69.0786 54.9139V61.8996C69.0786 64.1437 70.9131 65.9696 73.168 65.9696H80.2083C80.7207 65.9696 81.1375 66.3775 81.1375 66.8794V73.1294C81.1375 73.6308 80.7207 74.039 80.2083 74.039H73.168C70.9131 74.039 69.0786 75.8649 69.0786 78.1093V85.0947C69.0786 85.5963 68.662 86.0044 68.1496 86.0044H61.8504C61.3382 86.0044 60.9214 85.5965 60.9214 85.0947V78.1093C60.9214 75.8651 59.0869 74.039 56.8318 74.039C55.9589 74.039 55.2514 74.7465 55.2514 75.6194C55.2514 76.4922 55.9589 77.1997 56.8318 77.1997C57.3439 77.1997 57.7607 77.6077 57.7607 78.1095V85.0949C57.761 87.3388 59.5955 89.1647 61.8504 89.1647Z" fill="#062484"/>
</g>
<defs>
<clipPath id="clip0">
<rect width="108" height="108" fill="white" transform="translate(11 16)"/>
</clipPath>
</defs>
</svg>
