<svg width="132" height="18" viewBox="0 0 132 18" fill="none" xmlns="http://www.w3.org/2000/svg">
<path d="M0.564453 1.41211H3.15723C4.65137 1.41211 5.65625 1.47656 6.17188 1.60547C6.92188 1.79297 7.53125 2.1709 8 2.73926C8.46875 3.30762 8.70312 4.02539 8.70312 4.89258C8.70312 5.75391 8.47168 6.46875 8.00879 7.03711C7.55176 7.59961 6.91895 7.97754 6.11035 8.1709C5.51855 8.31152 4.41406 8.38184 2.79688 8.38184H1.86523V14.4463H0.564453V1.41211ZM1.86523 2.67773V7.10742L4.08008 7.13379C4.96484 7.13379 5.6123 7.05469 6.02246 6.89648C6.43848 6.73242 6.76367 6.46875 6.99805 6.10547C7.23828 5.73633 7.3584 5.33203 7.3584 4.89258C7.3584 4.44727 7.23828 4.04297 6.99805 3.67969C6.76367 3.31641 6.45312 3.05859 6.06641 2.90625C5.67969 2.75391 5.04688 2.67773 4.16797 2.67773H1.86523ZM10.6279 10.0869V8.92676C10.7217 8.34668 10.8564 7.875 11.0322 7.51172C11.4424 6.50391 11.9932 5.76562 12.6846 5.29688C13.376 4.82813 13.9502 4.59375 14.4072 4.59375C14.7471 4.59375 15.1104 4.70508 15.4971 4.92773L14.8555 5.96484C14.3105 5.76562 13.7686 5.92676 13.2295 6.44824C12.6963 6.96973 12.3271 7.53809 12.1221 8.15332C11.9697 8.69824 11.8936 9.7207 11.8936 11.2207V14.4814H10.6279V10.0869ZM24.3301 11.0713L25.3672 11.625C25.0332 12.2988 24.6406 12.8408 24.1895 13.251C23.7383 13.6611 23.2314 13.9746 22.6689 14.1914C22.1064 14.4023 21.4707 14.5078 20.7617 14.5078C19.1914 14.5078 17.9639 13.9951 17.0791 12.9697C16.1943 11.9385 15.752 10.7754 15.752 9.48047C15.752 8.25586 16.127 7.16602 16.877 6.21094C17.8262 4.99219 19.1006 4.38281 20.7002 4.38281C22.335 4.38281 23.6445 5.00684 24.6289 6.25488C25.3262 7.13379 25.6777 8.22949 25.6836 9.54199H17.0264C17.0498 10.667 17.4072 11.5898 18.0986 12.3105C18.79 13.0254 19.6426 13.3828 20.6562 13.3828C21.1484 13.3828 21.626 13.2979 22.0889 13.1279C22.5518 12.9521 22.9443 12.7236 23.2666 12.4424C23.5947 12.1611 23.9492 11.7041 24.3301 11.0713ZM24.3301 8.47852C24.166 7.81641 23.9258 7.28906 23.6094 6.89648C23.293 6.49805 22.874 6.17871 22.3525 5.93848C21.8311 5.69238 21.2832 5.56934 20.709 5.56934C19.7656 5.56934 18.9541 5.87402 18.2744 6.4834C17.7822 6.92871 17.4102 7.59375 17.1582 8.47852H24.3301ZM36.9072 12.627C37.4346 11.748 37.751 10.8838 37.8564 10.0342C37.8564 3.93457 37.8564 0.890625 37.8564 0.902344H36.626V6.28125C36.1045 5.64258 35.5215 5.16797 34.877 4.85742C34.2324 4.54102 33.5264 4.38281 32.7588 4.38281C31.3994 4.38281 30.2363 4.87793 29.2695 5.86816C28.3027 6.8584 27.8193 8.05957 27.8193 9.47168C27.8193 10.8604 28.3057 12.0469 29.2783 13.0312C30.251 14.0156 31.4229 14.5078 32.7939 14.5078C33.5791 14.5078 34.3145 14.3584 35 14.0596C35.6914 13.7549 36.3271 13.2773 36.9072 12.627ZM32.8994 13.3213C32.2021 13.3213 31.5605 13.1514 30.9746 12.8115C30.3945 12.4658 29.9316 11.9883 29.5859 11.3789C29.2402 10.7695 29.0674 10.1191 29.0674 9.42773C29.0674 8.74805 29.2402 8.09766 29.5859 7.47656C29.9375 6.84961 30.4062 6.36621 30.9922 6.02637C31.584 5.68066 32.2139 5.50781 32.8818 5.50781C33.5615 5.50781 34.2061 5.68066 34.8154 6.02637C35.4248 6.36621 35.8936 6.83203 36.2217 7.42383C36.5498 8.00977 36.7139 8.66602 36.7139 9.39258C36.7139 10.5117 36.3447 11.4463 35.6064 12.1963C34.8682 12.9463 33.9658 13.3213 32.8994 13.3213ZM40.8359 0.893555C41.1172 0.893555 41.3574 0.993164 41.5566 1.19238C41.7617 1.3916 41.8643 1.63184 41.8643 1.91309C41.8643 2.19434 41.7617 2.4375 41.5566 2.64258C41.3574 2.8418 41.1172 2.94141 40.8359 2.94141C40.5547 2.94141 40.3145 2.8418 40.1152 2.64258C39.916 2.4375 39.8164 2.19434 39.8164 1.91309C39.8164 1.63184 39.916 1.3916 40.1152 1.19238C40.3145 0.993164 40.5547 0.893555 40.8359 0.893555ZM40.2207 4.85742H41.46V14.499H40.2207V4.85742ZM53.3779 6.63281L52.3936 7.24805C51.5439 6.11133 50.3838 5.54297 48.9131 5.54297C47.7354 5.54297 46.7568 5.9209 45.9775 6.67676C45.2041 7.43262 44.8174 8.35254 44.8174 9.43652C44.8174 10.1396 44.9961 10.8047 45.3535 11.4316C45.7109 12.0527 46.2002 12.5332 46.8213 12.873C47.4424 13.2129 48.1396 13.3828 48.9131 13.3828C50.3369 13.3828 51.4971 12.8203 52.3936 11.6953L53.3779 12.3369C52.915 13.0283 52.2939 13.5645 51.5146 13.9453C50.7412 14.3203 49.8564 14.5078 48.8604 14.5078C47.3428 14.5078 46.0801 14.0244 45.0723 13.0576C44.0703 12.0908 43.5693 10.916 43.5693 9.5332C43.5693 8.5957 43.8037 7.72852 44.2725 6.93164C44.7471 6.12891 45.3916 5.50488 46.2061 5.05957C47.0264 4.6084 47.9463 4.38281 48.9658 4.38281C49.5986 4.38281 50.2109 4.47949 50.8027 4.67285C51.4004 4.86621 51.9072 5.12109 52.3232 5.4375C52.7393 5.74805 53.0908 6.14648 53.3779 6.63281ZM59.2227 13.1367C58.6133 13.4648 58.0156 13.4912 57.4297 13.2158C56.7148 12.6709 56.375 11.8945 56.4102 10.8867V6.80859H58.6953V5.74512H56.4014V1.08691H55.1533V11.0977C55.1416 11.8008 55.3027 12.4453 55.6367 13.0312C56.1875 13.9629 56.9375 14.4551 57.8867 14.5078C58.3906 14.5254 58.9648 14.4111 59.6094 14.165C59.5098 13.9189 59.3809 13.5762 59.2227 13.1367ZM70.9473 1.41211L77.0205 14.4463H75.6318L73.584 10.1484H67.959L65.9287 14.4463H64.4697L70.6309 1.41211H70.9473ZM70.7891 4.17188L68.5391 8.90039H73.0039L70.7891 4.17188ZM78.8398 10.8428L78.8223 9.81445C78.8047 9.31055 78.8252 8.88281 78.8838 8.53125C79.0127 7.42383 79.2939 6.6123 79.7275 6.09668C80.1494 5.64551 80.5801 5.29688 81.0195 5.05078C81.7461 4.74023 82.5752 4.59375 83.5068 4.61133C84.2334 4.61133 84.9043 4.7959 85.5195 5.16504C86.1406 5.52832 86.583 6.02051 86.8467 6.6416C87.1104 7.25684 87.2422 8.22363 87.2422 9.54199V14.499H86.0117V9.90234C86.0117 8.78906 85.9648 8.04492 85.8711 7.66992C85.7246 7.03125 85.4346 6.58008 85.001 6.31641C84.5674 6.04688 83.9258 5.91211 83.0762 5.91211C82.3262 5.91211 81.6582 6.12891 81.0723 6.5625C80.4863 6.99609 80.2139 7.58789 80.2549 8.33789C80.1436 8.81836 80.0879 9.69434 80.0879 10.9658V14.499H78.8398V10.8428ZM94.4404 4.38281C95.9229 4.38281 97.1533 4.91895 98.1318 5.99121C99.0342 6.96973 99.4854 8.13281 99.4854 9.48047C99.4971 12.8086 99.4971 14.499 99.4854 14.5518C98.9229 14.5518 98.4863 14.5518 98.1758 14.5518C98.1758 14.5107 98.1758 13.7812 98.1758 12.3633C97.4902 13.6406 96.2451 14.3555 94.4404 14.5078C92.9639 14.5078 91.7568 14.0068 90.8193 13.0049C89.8877 11.9971 89.4219 10.8223 89.4219 9.48047C89.4219 8.14453 89.8643 6.98438 90.749 6C91.7275 4.92187 92.958 4.38281 94.4404 4.38281ZM94.4404 5.5957C93.415 5.5957 92.5332 5.97656 91.7949 6.73828C91.0566 7.5 90.6875 8.41992 90.6875 9.49805C90.6875 10.1953 90.875 10.8662 91.25 11.5107C91.6309 12.1553 92.2725 12.7002 93.1748 13.1455C95.4365 13.6494 97.0449 12.6211 98 10.0605C98.0527 9.24023 97.9648 8.45508 97.7363 7.70508C97.5723 7.36523 97.3467 7.04297 97.0596 6.73828C96.3389 5.97656 95.4658 5.5957 94.4404 5.5957ZM101.7 1.13086H102.948V14.499H101.7V1.13086ZM104.478 4.62891H105.787L109.101 12.0557L112.317 4.62891H113.645L107.888 17.7861H106.578L108.433 13.541L104.478 4.62891ZM120.078 5.68359L119.287 6.50977C118.619 5.86523 117.972 5.54297 117.345 5.54297C116.94 5.54297 116.595 5.6748 116.308 5.93848C116.021 6.20215 115.877 6.51562 115.877 6.87891C115.877 7.18359 115.997 7.47656 116.237 7.75781C116.472 8.05664 116.967 8.39941 117.723 8.78613C118.648 9.26074 119.275 9.7207 119.604 10.166C119.926 10.6172 120.087 11.124 120.087 11.6865C120.087 12.4717 119.809 13.1396 119.252 13.6904C118.701 14.2354 118.01 14.5078 117.178 14.5078C116.621 14.5078 116.088 14.3906 115.578 14.1562C115.074 13.916 114.658 13.582 114.33 13.1543L115.112 12.2666C115.745 12.9814 116.416 13.3389 117.125 13.3389C117.617 13.3389 118.036 13.1807 118.382 12.8643C118.733 12.542 118.909 12.167 118.909 11.7393C118.909 11.3818 118.795 11.0654 118.566 10.79C118.338 10.5146 117.819 10.1689 117.011 9.75293C116.138 9.31348 115.546 8.87109 115.235 8.42578C114.919 7.99219 114.761 7.49414 114.761 6.93164C114.761 6.19922 115.01 5.59277 115.508 5.1123C116.012 4.62598 116.642 4.38281 117.397 4.38281C118.282 4.38281 119.176 4.81641 120.078 5.68359ZM130.379 11.0713L131.416 11.625C131.082 12.2988 130.689 12.8408 130.238 13.251C129.787 13.6611 129.28 13.9746 128.718 14.1914C128.155 14.4023 127.52 14.5078 126.811 14.5078C125.24 14.5078 124.013 13.9951 123.128 12.9697C122.243 11.9385 121.801 10.7754 121.801 9.48047C121.801 8.25586 122.176 7.16602 122.926 6.21094C123.875 4.99219 125.149 4.38281 126.749 4.38281C128.384 4.38281 129.693 5.00684 130.678 6.25488C131.375 7.13379 131.727 8.22949 131.732 9.54199H123.075C123.099 10.667 123.456 11.5898 124.147 12.3105C124.839 13.0254 125.691 13.3828 126.705 13.3828C127.197 13.3828 127.675 13.2979 128.138 13.1279C128.601 12.9521 128.993 12.7236 129.315 12.4424C129.644 12.1611 129.998 11.7041 130.379 11.0713ZM130.379 8.47852C130.215 7.81641 129.975 7.28906 129.658 6.89648C129.342 6.49805 128.923 6.17871 128.401 5.93848C127.88 5.69238 127.332 5.56934 126.758 5.56934C125.814 5.56934 125.003 5.87402 124.323 6.4834C123.831 6.92871 123.459 7.59375 123.207 8.47852H130.379Z" fill="#0B2B5C"/>
</svg>
