<svg width="94" height="80" viewBox="0 0 94 80" fill="none" xmlns="http://www.w3.org/2000/svg">
<path d="M92.1923 39.9991H85.4424L93.9512 4.05468C94.0605 3.58954 93.9833 3.09982 93.7363 2.69149C93.4894 2.28315 93.0925 1.98905 92.6316 1.87282L85.4008 0.054594C84.942 -0.0611159 84.4563 0.00867982 84.0481 0.249006C83.6398 0.489331 83.3415 0.88104 83.2171 1.34008L72.7343 39.9991H68.6453C69.8416 38.4347 70.4934 36.5181 70.5 34.5444V29.0898H65.0769C62.954 29.0949 60.9006 29.8514 59.2768 31.2268C57.6529 32.6021 56.5621 34.5085 56.1957 36.6118C55.5016 35.5996 54.6084 34.7414 53.5714 34.0903C52.5344 33.4391 51.3756 33.0089 50.1667 32.8262C48.9578 32.6435 47.7244 32.7122 46.543 33.0281C45.3615 33.344 44.257 33.9003 43.2978 34.6626C47 18.7423 47 18.5441 47 18.1805C46.9996 17.1716 46.7906 16.1739 46.3862 15.2508C45.9818 14.3276 45.3909 13.4991 44.651 12.818C43.9111 12.1369 43.0385 11.6181 42.0885 11.2945C41.1385 10.9709 40.132 10.8497 39.1329 10.9385C38.3978 8.80258 37.019 6.95029 35.1885 5.63928C33.3579 4.32828 31.1666 3.62377 28.9195 3.62377C26.6723 3.62377 24.481 4.32828 22.6505 5.63928C20.8199 6.95029 19.4412 8.80258 18.706 10.9385C17.7075 10.8508 16.7018 10.9728 15.7526 11.2969C14.8035 11.6209 13.9318 12.1399 13.1927 12.8209C12.4536 13.5019 11.8634 14.33 11.4594 15.2526C11.0554 16.1753 10.8466 17.1723 10.8462 18.1805C10.8462 18.6732 10.857 19.4968 13.9192 29.2171C13.5009 29.1448 13.0781 29.1023 12.6538 29.0898H7.23077V34.5444C7.23742 36.5181 7.88912 38.4347 9.08546 39.9991H1.80769C1.32826 39.9991 0.868469 40.1907 0.529461 40.5317C0.190453 40.8726 0 41.3351 0 41.8173C0 58.7395 15.7739 69.4543 19.8846 71.9544V78.1818C19.8846 78.664 20.0751 79.1265 20.4141 79.4675C20.7531 79.8084 21.2129 80 21.6923 80H72.3077C72.7871 80 73.2469 79.8084 73.5859 79.4675C73.9249 79.1265 74.1154 78.664 74.1154 78.1818V71.9544C78.2261 69.4543 94 58.7395 94 41.8173C94 41.3351 93.8095 40.8726 93.4705 40.5317C93.1315 40.1907 92.6717 39.9991 92.1923 39.9991ZM86.2396 4.01286L90.0195 4.96197L81.7258 39.9991H76.4835L86.2396 4.01286ZM59.6538 38.1809C59.6538 36.7342 60.2252 35.3468 61.2422 34.3239C62.2593 33.3009 63.6386 32.7262 65.0769 32.7262H66.8846V34.5444C66.8846 35.9911 66.3133 37.3785 65.2962 38.4015C64.2792 39.4244 62.8998 39.9991 61.4615 39.9991H59.6538V38.1809ZM48.8077 36.3627C49.929 36.364 51.0223 36.7143 51.9379 37.3653C52.8535 38.0164 53.5464 38.9363 53.9216 39.9991H43.6937C44.069 38.9363 44.7619 38.0164 45.6775 37.3653C46.593 36.7143 47.6864 36.364 48.8077 36.3627ZM39.4601 39.9991H29.2322C29.6056 38.9349 30.298 38.0134 31.2139 37.3616C32.1298 36.7098 33.2242 36.3597 34.3462 36.3597C35.4681 36.3597 36.5625 36.7098 37.4784 37.3616C38.3944 38.0134 39.0867 38.9349 39.4601 39.9991ZM14.4615 18.1805C14.4485 17.5853 14.5835 16.9963 14.8543 16.467C15.1251 15.9377 15.5231 15.4848 16.0122 15.1495C16.5012 14.8142 17.0658 14.6072 17.6547 14.5471C18.2435 14.4871 18.8379 14.576 19.3839 14.8058C19.6349 14.9022 19.9042 14.9411 20.1721 14.9196C20.4399 14.8982 20.6997 14.8169 20.9324 14.6818C21.1651 14.5466 21.3649 14.361 21.5173 14.1384C21.6698 13.9158 21.7709 13.6618 21.8134 13.3949C22.0765 11.6882 22.9378 10.1324 24.2417 9.00866C25.5455 7.88488 27.206 7.2672 28.9231 7.2672C30.6402 7.2672 32.3006 7.88488 33.6045 9.00866C34.9083 10.1324 35.7696 11.6882 36.0327 13.3949C36.0753 13.6618 36.1764 13.9158 36.3288 14.1384C36.4812 14.361 36.681 14.5466 36.9138 14.6818C37.1465 14.8169 37.4062 14.8982 37.6741 14.9196C37.942 14.9411 38.2112 14.9022 38.4623 14.8058C38.9986 14.5802 39.5818 14.4905 40.1607 14.5444C40.7396 14.5984 41.2965 14.7945 41.7825 15.1155C42.2684 15.4364 42.6687 15.8725 42.948 16.3853C43.2273 16.8981 43.3773 17.4721 43.3846 18.0568C43.1424 19.3459 41.0238 28.488 39.6318 34.4754C38.0993 33.3426 36.248 32.7299 34.3462 32.7262C32.2633 32.7289 30.2451 33.4537 28.6316 34.7785C27.0181 36.1033 25.908 37.9471 25.4885 39.9991H21.6923V38.1809C21.6873 36.8321 21.3822 35.5016 20.7995 34.2869C20.2168 33.0722 19.3711 32.004 18.3246 31.1607C14.9659 20.6278 14.4995 18.5205 14.4615 18.1805ZM10.8462 34.5444V32.7262H12.6538C14.0921 32.7262 15.4715 33.3009 16.4885 34.3239C17.5056 35.3468 18.0769 36.7342 18.0769 38.1809V39.9991H16.2692C14.8309 39.9991 13.4516 39.4244 12.4345 38.4015C11.4175 37.3785 10.8462 35.9911 10.8462 34.5444ZM71.8196 69.0907H63.2692V72.7271H70.5V76.3636H23.5V72.7271H47V69.0907H22.1804C20.1449 67.8797 9.80311 61.2923 5.50623 50.9084H25.3077V47.272H4.31135C4.00574 46.079 3.79776 44.8627 3.6895 43.6356H90.3105C90.2022 44.8627 89.9943 46.079 89.6887 47.272H50.6154V50.9084H88.4938C84.1969 61.2923 73.8551 67.8797 71.8196 69.0907Z" fill="#062484"/>
</svg>
