<svg width="90" height="101" viewBox="0 0 90 101" fill="none" xmlns="http://www.w3.org/2000/svg">
<path d="M87.3287 59.1907C89.0051 56.6746 89.8438 53.5354 89.8438 50.8153C89.8438 46.7145 88.0221 42.9045 84.8961 40.3209C85.5879 38.6678 85.9375 36.9485 85.9375 35.1903C85.9375 29.7498 82.7625 24.6819 78.042 22.3153C78.7582 16.375 74.8875 10.9301 69.1514 9.54125C66.9062 4.35121 61.9092 0.815277 56.6406 0.815277C51.7363 0.815277 47.3377 3.67582 44.9219 7.84965C42.5059 3.67582 38.1072 0.815277 33.2031 0.815277C27.9342 0.815277 22.9371 4.35121 20.6924 9.54145C14.9219 10.9391 11.0875 16.4112 11.8018 22.3153C7.08145 24.6817 3.90625 29.7498 3.90625 35.1903C3.90625 36.9485 4.25586 38.6678 4.94766 40.3209C1.82168 42.9047 0 46.7145 0 50.8153C0 53.5497 0.845703 56.6848 2.51504 59.1905C0.883789 61.4932 0 64.2223 0 67.0262C0 70.6622 1.47422 74.1258 4.08184 76.6977C2.74121 84.8016 9.2041 93.0028 17.5781 93.0028C17.6387 93.0028 17.6982 93.0018 17.7566 93C20.533 97.7895 25.6865 100.815 31.25 100.815C37.0484 100.815 42.2297 97.3348 44.9219 92.3204C47.6141 97.3348 52.7953 100.815 58.5938 100.815C64.1572 100.815 69.3107 97.7895 72.0871 93C72.1457 93.0018 72.2051 93.0028 72.2656 93.0028C79.6766 93.0028 85.9375 86.4735 85.9375 78.745C85.9375 78.087 85.8797 77.4102 85.7619 76.6977C88.3695 74.1258 89.8438 70.6623 89.8438 67.0262C89.8438 64.2223 88.96 61.4932 87.3287 59.1907ZM42.9688 30.3819C41.8187 29.7149 40.485 29.3309 39.0625 29.3309C37.9838 29.3309 37.1094 30.2053 37.1094 31.284C37.1094 32.3627 37.9838 33.2372 39.0625 33.2372C41.2164 33.2372 42.9688 34.9895 42.9688 37.1434V74.2858C40.1033 71.0356 35.9135 68.9793 31.25 68.9793C30.1713 68.9793 29.2969 69.8538 29.2969 70.9325C29.2969 72.0112 30.1713 72.8856 31.25 72.8856C37.7117 72.8856 42.9688 78.1426 42.9688 84.6043C42.9688 91.2741 37.6021 96.909 31.25 96.909C26.7281 96.909 22.5654 94.235 20.6447 90.0965C20.2906 89.3338 19.4887 88.884 18.6525 88.9782C18.5145 88.994 18.3771 89.0124 18.2398 89.0311C12.6813 89.7913 6.42148 83.4969 8.11602 76.4555C8.29004 75.7323 8.03808 74.9733 7.46641 74.4975C5.20391 72.6149 3.90625 69.8916 3.90625 67.0262C3.90625 65.2545 4.40723 63.5207 5.33945 62.0004C7.68203 63.9204 10.5959 65.0731 13.6719 65.0731C14.7506 65.0731 15.625 64.1987 15.625 63.12C15.625 62.0413 14.7506 61.1668 13.6719 61.1668C8.37129 61.1668 3.90625 56.3289 3.90625 50.8153C3.90625 47.4706 5.61113 44.3936 8.46719 42.5844C9.34707 42.027 9.63476 40.8772 9.1209 39.9711C8.25273 38.4401 7.8125 36.8315 7.8125 35.1903C7.8125 29.9188 12.1098 24.8387 17.5781 24.8387C22.7805 24.8387 27.3438 29.676 27.3438 35.1903C27.3438 36.269 28.2182 37.1434 29.2969 37.1434C30.3756 37.1434 31.25 36.269 31.25 35.1903C31.25 27.4618 24.9891 20.9325 17.5781 20.9325C16.9242 20.9325 16.2738 20.9854 15.6299 21.0856C15.6289 21.0342 15.625 20.9842 15.625 20.9325C15.625 16.5737 19.1635 13.12 23.4375 13.12C25.5238 13.12 27.4863 13.9327 28.9633 15.408C29.7264 16.1704 30.9629 16.1696 31.7254 15.4067C32.4877 14.6434 32.4871 13.4069 31.724 12.6446C29.9422 10.8647 27.6885 9.72954 25.2461 9.35336C26.9686 6.79653 29.8328 4.72153 33.2031 4.72153C38.4055 4.72153 42.9688 9.55864 42.9688 15.0731V30.3819ZM76.1719 65.0731C79.248 65.0731 82.1619 63.9202 84.5045 62.001C85.4365 63.5211 85.9375 65.2547 85.9375 67.0262C85.9375 69.8916 84.6398 72.6149 82.3775 74.4975C81.8057 74.9733 81.5539 75.7325 81.7279 76.4555C81.935 77.3155 82.0312 78.043 82.0312 78.7448C82.0312 84.8073 76.5479 89.7069 71.6041 89.0311C71.4668 89.0124 71.3293 88.9938 71.1912 88.9782C70.3539 88.8834 69.5529 89.3338 69.1992 90.0965C67.2785 94.235 63.1154 96.909 58.5938 96.909C52.2416 96.909 46.875 91.2741 46.875 84.6043C46.875 78.1426 52.132 72.8856 58.5938 72.8856C59.6723 72.8856 60.5469 72.0112 60.5469 70.9325C60.5469 69.8538 59.6723 68.9793 58.5938 68.9793C53.9303 68.9793 49.7404 71.0356 46.875 74.2858V37.1434C46.875 34.9895 48.6273 33.2372 50.7812 33.2372C51.8598 33.2372 52.7344 32.3627 52.7344 31.284C52.7344 30.2053 51.8598 29.3309 50.7812 29.3309C49.3588 29.3309 48.025 29.7149 46.875 30.3819V15.0731C46.875 9.55864 51.4383 4.72153 56.6406 4.72153C60.0109 4.72153 62.875 6.79653 64.5975 9.35317C62.1553 9.72934 59.9018 10.8645 58.1197 12.6444C57.3564 13.4067 57.3557 14.6432 58.118 15.4065C58.8803 16.1698 60.1172 16.1704 60.8801 15.408C62.3576 13.9327 64.3199 13.12 66.4062 13.12C70.7018 13.12 74.2188 16.594 74.2188 20.9325C74.2188 20.984 74.2148 21.0342 74.2139 21.0856C73.5699 20.9854 72.9195 20.9325 72.2656 20.9325C64.8547 20.9325 58.5938 27.4618 58.5938 35.1903C58.5938 36.269 59.4684 37.1434 60.5469 37.1434C61.6254 37.1434 62.5 36.269 62.5 35.1903C62.5 29.676 67.0633 24.8387 72.2656 24.8387C77.7309 24.8387 82.0312 29.9163 82.0312 35.1903C82.0312 36.8315 81.591 38.4401 80.7228 39.9711C80.2092 40.8772 80.4969 42.027 81.3768 42.5844C84.2326 44.3936 85.9375 47.4706 85.9375 50.8153C85.9375 56.3487 81.4568 61.1668 76.1719 61.1668C75.0934 61.1668 74.2188 62.0413 74.2188 63.12C74.2188 64.1987 75.0934 65.0731 76.1719 65.0731Z" fill="#062484"/>
</svg>
