<?xml version="1.0" encoding="iso-8859-1"?>
<!-- Generator: Adobe Illustrator 19.0.0, SVG Export Plug-In . SVG Version: 6.00 Build 0)  -->
<svg version="1.1" id="Capa_1" xmlns="http://www.w3.org/2000/svg" xmlns:xlink="http://www.w3.org/1999/xlink" x="0px" y="0px"
	 viewBox="0 0 512 512" style="enable-background:new 0 0 512 512;" xml:space="preserve">
<path style="fill:#A0E557;" d="M196,166v144c0,22.091,17.909,40,40,40h132l40,40l40-40h14c22.091,0,40-17.909,40-40V166
	c0-22.091-17.909-40-40-40H236C213.909,126,196,143.909,196,166z"/>
<path style="fill:#72D8FF;" d="M10.025,50v144c0,22.091,17.909,40,40,40h25.143l40,40l40-40h120.857c22.091,0,40-17.909,40-40V50
	c0-22.091-17.909-40-40-40h-226C27.933,10,10.025,27.909,10.025,50z"/>
<path style="fill:#FFB954;" d="M297.335,408.989L384,455.494L297.335,502H35.287C21.322,502,10,490.678,10,476.712v-42.436
	c0-13.966,11.322-25.287,25.287-25.287H297.335z"/>
<path style="fill:#FF5D5D;" d="M75.254,408.989H35.287C21.322,408.989,10,420.311,10,434.276v42.436
	C10,490.678,21.322,502,35.288,502h39.966V408.989z"/>
<polygon style="fill:#898998;" points="297.335,408.989 384,455.494 297.335,502 "/>
<path d="M361.5,136c2.63,0,5.21-1.07,7.069-2.93c1.86-1.86,2.931-4.44,2.931-7.07s-1.07-5.21-2.931-7.07
	c-1.859-1.86-4.439-2.93-7.069-2.93s-5.21,1.07-7.07,2.93c-1.86,1.86-2.93,4.44-2.93,7.07s1.069,5.21,2.93,7.07
	S358.87,136,361.5,136z"/>
<path d="M462,116h-63.75c-5.522,0-10,4.477-10,10c0,5.523,4.478,10,10,10H462c16.542,0,30,13.458,30,30v144
	c0,16.542-13.458,30-30,30h-14c-2.652,0-5.195,1.054-7.071,2.929L408,375.858l-32.929-32.929C373.195,341.054,370.652,340,368,340
	H236c-16.542,0-30-13.458-30-30v-36c0-5.523-4.478-10-10-10s-10,4.477-10,10v36c0,27.57,22.43,50,50,50h127.857l37.071,37.071
	C402.882,399.024,405.44,400,408,400s5.118-0.976,7.071-2.929L452.143,360H462c27.57,0,50-22.43,50-50V166
	C512,138.43,489.57,116,462,116z"/>
<path d="M50.024,244h21.001l37.071,37.071c1.953,1.953,4.512,2.929,7.071,2.929s5.118-0.976,7.071-2.929L159.311,244h116.714
	c27.57,0,50-22.43,50-50V50c0-27.57-22.43-50-50-50h-226c-27.57,0-50,22.43-50,50v144C0.024,221.57,22.454,244,50.024,244z
	 M20.024,50c0-16.542,13.458-30,30-30h226c16.542,0,30,13.458,30,30v144c0,16.542-13.458,30-30,30H155.168
	c-2.652,0-5.195,1.054-7.071,2.929l-32.929,32.929l-32.929-32.929C80.363,225.054,77.82,224,75.168,224H50.024
	c-16.542,0-30-13.458-30-30C20.024,194,20.024,50,20.024,50z"/>
<path d="M361.5,186c-4.02,0-7.649,2.407-9.213,6.111l-35.462,84c-2.147,5.088,0.235,10.954,5.323,13.102
	c5.09,2.146,10.954-0.236,13.103-5.324l5.012-11.873h42.474l5.012,11.873c1.612,3.819,5.317,6.113,9.217,6.113
	c1.297,0,2.616-0.254,3.886-0.79c5.088-2.148,7.471-8.014,5.323-13.102l-35.462-84C369.149,188.407,365.52,186,361.5,186z
	 M374.293,252.016h-25.587l12.793-30.304L374.293,252.016z"/>
<path d="M158.524,176c10.997,0,21.102-3.884,29.024-10.345l10.046,7.398c1.785,1.315,3.862,1.948,5.922,1.948
	c3.07,0,6.1-1.409,8.061-4.071c3.274-4.447,2.324-10.707-2.123-13.982l-9.49-6.988c2.921-6.041,4.561-12.812,4.561-19.959v-16
	c0-25.364-20.636-46-46-46s-46,20.636-46,46v16C112.524,155.364,133.16,176,158.524,176z M132.524,114c0-14.336,11.663-26,26-26
	s26,11.664,26,26v16c0,2.69-0.411,5.285-1.172,7.727l-10.564-7.779c-4.447-3.276-10.706-2.325-13.982,2.123
	c-3.274,4.447-2.324,10.707,2.123,13.982l9.544,7.028c-3.58,1.861-7.642,2.92-11.948,2.92c-14.337,0-26-11.664-26-26V114H132.524z"
	/>
<path d="M388.729,446.683l-86.665-46.505c-1.454-0.78-3.078-1.188-4.729-1.188H35.287C15.83,398.989,0,414.819,0,434.276v42.436
	C0,496.17,15.83,512,35.287,512h262.048c1.65,0,3.274-0.408,4.729-1.188l86.665-46.506c3.246-1.742,5.271-5.127,5.271-8.812
	S391.975,448.425,388.729,446.683z M85.254,464.705H212.5c5.522,0,10-4.477,10-10s-4.478-10-10-10H85.254v-25.716h202.081V492
	H85.254V464.705z M20,476.712v-42.436c0-8.43,6.857-15.288,15.287-15.288h29.967V492H35.287C26.857,492,20,485.142,20,476.712z
	 M307.335,485.285v-59.581l55.516,29.79L307.335,485.285z"/>
<path d="M258.069,447.63c-1.859-1.86-4.439-2.92-7.069-2.92s-5.21,1.06-7.07,2.92s-2.93,4.44-2.93,7.07c0,2.64,1.069,5.22,2.93,7.07
	c1.86,1.87,4.44,2.94,7.07,2.94s5.21-1.07,7.069-2.94c1.86-1.86,2.931-4.43,2.931-7.07C261,452.07,259.93,449.5,258.069,447.63z"/>
<g>
</g>
<g>
</g>
<g>
</g>
<g>
</g>
<g>
</g>
<g>
</g>
<g>
</g>
<g>
</g>
<g>
</g>
<g>
</g>
<g>
</g>
<g>
</g>
<g>
</g>
<g>
</g>
<g>
</g>
</svg>
