<?xml version="1.0" encoding="utf-8"?>
<!-- Generator: Adobe Illustrator 23.1.1, SVG Export Plug-In . SVG Version: 6.00 Build 0)  -->
<svg version="1.1" id="Layer_1" xmlns="http://www.w3.org/2000/svg" xmlns:xlink="http://www.w3.org/1999/xlink" x="0px" y="0px"
	 viewBox="0 0 300 439.9" style="enable-background:new 0 0 300 439.9;" xml:space="preserve">
<style type="text/css">
	.st0{fill:#CE9B9B;}
	.st1{fill:#FFBD9C;}
	.st2{fill:#362349;}
	.st3{fill:#563B6B;}
	.st4{fill:#D89682;}
	.st5{fill:#EE5050;}
	.st6{fill:#D35050;}
	.st7{opacity:0.8;}
	.st8{fill:#FFFFFF;}
	.st9{fill:#0648B3;}
	.st10{fill:#18214D;}
	.st11{fill:#FFF1E9;}
	.st12{fill:#7E2E3B;}
	.st13{opacity:0.35;}
	.st14{fill:#561A25;}
	.st15{fill:#F7F7F7;}
	.st16{opacity:0.24;}
	.st17{fill:#B7652E;}
	.st18{fill:#040055;}
	.st19{fill:#B56835;}
	.st20{fill:#422D51;}
	.st21{fill:#00B493;}
	.st22{fill:#009198;}
	.st23{fill:#FCA054;}
	.st24{fill:#9E6235;}
	.st25{fill:#0C0C0C;}
	.st26{fill:#C8BDD1;}
	.st27{fill:#B56326;}
	.st28{fill:#383838;}
	.st29{fill:#161616;}
	.st30{fill:#432254;}
	.st31{fill:#C48362;}
	.st32{fill:#2D2D2D;}
	.st33{fill:#694582;}
	.st34{fill:#191919;}
	.st35{fill:#663A3A;}
	.st36{fill:#3F2222;}
	.st37{fill:#111111;}
	.st38{fill:#1C1C1C;}
</style>
<g>
	<g>
	</g>
	<g>
		<g>
			<g>
				<g>
					<g>
						<g>
							<g>
								<path class="st0" d="M274,437.6H69.9c-0.4,0-0.7,0.3-0.7,0.7c0,0.4,0.3,0.7,0.7,0.7h204.2c0-0.1,0-0.2,0-0.2
									C274.1,438.5,274.1,438,274,437.6z"/>
							</g>
						</g>
					</g>
				</g>
			</g>
			<g>
				<g>
					<g>
						<g>
							<path class="st1" d="M229,348.7c-0.3-0.2,9-6.3,0-7.9c-8.1-1.5,8.2-33.5,8.2-33.5l-9-24c0,0-14.9,42-21.3,55
								c-1.3,2.6,0.1,9.5,2.5,11.1c1.3,0.8,2.8,1.8,4.5,2.9C216.1,347.7,226.9,353.5,229,348.7z"/>
						</g>
					</g>
					<g>
						<g>
							<path class="st1" d="M221.8,333.1c-2.1,4.8-4.3,15.7-6.4,20.4c9.8,6.3,45.2,25.6,45.2,25.6l3.9-10.7
								C264.4,368.4,238.1,334.6,221.8,333.1z"/>
						</g>
					</g>
				</g>
			</g>
			<g>
				<g>
					<g>
						<path class="st1" d="M262.7,286.4l-2.1,3.8l-24.3,44.6l-0.4,0.7l-0.6,1c0,0-2.5,20-4.6,28.2c-2.6,10.5-19.3,44.9-19.3,44.9
							l-7.6,20l-8.9-8.7l32.4-137.1l0.8-2.6C228.2,281.1,263,285.5,262.7,286.4z"/>
					</g>
				</g>
			</g>
			<g>
				<g>
					<g>
						<rect x="196.2" y="434.2" class="st2" width="11.3" height="4.9"/>
					</g>
				</g>
				<g>
					<g>
						<g>
							<g>
								<g>
									<path class="st3" d="M198.3,422.7c-3.9,1.8-7.6,3.9-11,6.4c-3.2,2.4-7.9,5.2-12.4,5.4c-9.2,0.3-9.9,4.5-5.8,4.7
										c3.2,0.2,9.9,0.5,18,0c7-0.5,14.1-1.8,17.8-2.1c1.5-0.1,2.5-0.7,2.9-3.1c0.6-3.8,0-7.3-2.1-9.7c-1.8-2-4.7-2.7-7.2-1.6
										L198.3,422.7z"/>
								</g>
							</g>
						</g>
					</g>
					<g>
						<g>
							<g>
								<g>
									<path class="st1" d="M205.7,424.7c-1.8,4.9-11.3,11-33.6,10c0,0,22-6.2,22.9-13.8c0.2-1.6,7.2,0.9,10.2,2
										C205.9,423.1,206,423.9,205.7,424.7z"/>
								</g>
							</g>
						</g>
					</g>
				</g>
			</g>
			<g>
				<g>
					<g>
						
							<rect x="270.8" y="369.6" transform="matrix(-1.002919e-02 -0.9999 0.9999 -1.002919e-02 -92.8671 652.2233)" class="st2" width="11.3" height="4.9"/>
					</g>
				</g>
				<g>
					<g>
						<g>
							<g>
								<g>
									<path class="st3" d="M262.5,375.8c1.8,3.9,3.9,7.6,6.5,10.9c2.4,3.2,5.3,7.9,5.5,12.3c0.4,9.2,4.6,9.9,4.7,5.8
										c0.1-3.2,0.4-9.9-0.2-18c-0.5-7-1.9-14.1-2.3-17.8c-0.1-1.5-0.7-2.5-3.2-2.9c-3.8-0.6-7.3,0.1-9.6,2.2
										c-2,1.8-2.6,4.8-1.5,7.2L262.5,375.8z"/>
								</g>
							</g>
						</g>
					</g>
					<g>
						<g>
							<g>
								<g>
									<path class="st1" d="M264.4,368.2c4.9,1.8,11.1,11.4,10.4,33.6c0,0-7.2-18.9-14.1-22.7c-1.4-0.8,1.1-8.4,2.2-11.4
										C263.2,367,263.7,368,264.4,368.2z"/>
								</g>
							</g>
						</g>
					</g>
				</g>
			</g>
			<g>
				<g>
					<path class="st4" d="M211.5,351.1C211.5,351.1,211.5,351.1,211.5,351.1c-0.2-0.1-0.4-0.2-0.3-0.4l16.2-66.9
						c0-0.2,0.2-0.3,0.4-0.2c0.2,0,0.3,0.2,0.2,0.4l-16.2,66.9C211.8,351,211.7,351.1,211.5,351.1z"/>
				</g>
			</g>
			<g>
				<g>
					<g>
						<g>
							<path class="st5" d="M278,223.7c0.9,13.6-10.5,24.4-24.1,24.1c-13.6-0.4-23.2-11.8-22.9-25.4c0.1-4,1.3-14.2,2.8-19.9
								c3.6-13.8,10.6-24.3,20.2-24.1C267.6,178.7,277.1,209.4,278,223.7z"/>
						</g>
					</g>
				</g>
				<g>
					<g>
						<g>
							<path class="st5" d="M277.9,228c-5.2,46.7-20.2,67.6-20.2,67.6l-31.1-5.4l-0.4-0.1l-0.2,0l-0.2,0l0-0.6l0.1-1.6l5-65.5
								C231,222.3,279.2,216,277.9,228z"/>
						</g>
					</g>
				</g>
				<g>
					<g>
						<path class="st6" d="M226.1,290.2C226.1,290.2,226.1,290.1,226.1,290.2c-0.3-0.1-0.4-0.2-0.3-0.4c0.1-0.3,7.2-27.6,8.4-36.3
							c0-0.2,0.2-0.3,0.4-0.3c0.2,0,0.3,0.2,0.3,0.4c-1.2,8.7-8.4,36.1-8.4,36.3C226.4,290.1,226.3,290.2,226.1,290.2z"/>
					</g>
				</g>
			</g>
			<g>
				<g>
					<path class="st4" d="M219.4,334.5c-0.2,0-0.3-0.1-0.3-0.3c0-0.2,0.1-0.3,0.3-0.3c3.6,0,5.1-7.8,5.1-7.9c0-0.2,0.2-0.3,0.4-0.3
						c0.2,0,0.3,0.2,0.3,0.4C225.1,326.5,223.6,334.5,219.4,334.5z"/>
				</g>
			</g>
			<g>
				<g>
					<path class="st6" d="M252.7,214.9c-0.5,0-1-0.1-1.4-0.4c-0.6-0.4-1.1-1-1.3-1.7l-3.8-15c0-0.2,0.1-0.3,0.2-0.4l13.5-3.4
						c0.1,0,0.2,0,0.2,0c0.1,0,0.1,0.1,0.1,0.2l3.8,15c0.2,0.7,0.1,1.4-0.3,2.1c-0.4,0.6-1,1.1-1.7,1.3l-0.1-0.3l0.1,0.3l-8.8,2.2
						C253.1,214.8,252.9,214.9,252.7,214.9z M246.9,198l3.7,14.6c0.1,0.5,0.5,1,1,1.3c0.5,0.3,1,0.4,1.6,0.2l8.8-2.2
						c0.5-0.1,1-0.5,1.3-1c0.3-0.5,0.4-1,0.2-1.6l-3.7-14.6L246.9,198z"/>
				</g>
			</g>
			<g>
				<g>
					<path class="st6" d="M257.2,213.6c-1.2,0-2.3-0.8-2.7-2.1l-3.8-15c0-0.1,0-0.2,0-0.2c0-0.1,0.1-0.1,0.2-0.1l13.5-3.4
						c0.2,0,0.3,0.1,0.4,0.2l3.8,15c0.4,1.5-0.5,3-2,3.3l-0.1-0.3l0.1,0.3l-8.8,2.2C257.6,213.6,257.4,213.6,257.2,213.6z
						 M251.4,196.8l3.7,14.6c0.3,1.1,1.4,1.8,2.5,1.5l8.8-2.2l0,0c0.5-0.1,1-0.5,1.3-1c0.3-0.5,0.4-1,0.2-1.6l-3.7-14.6L251.4,196.8
						z"/>
				</g>
			</g>
			<g class="st7">
				<g>
					<g>
						<g>
							
								<rect x="130" y="219.9" transform="matrix(0.7151 -0.699 0.699 0.7151 -119.8441 155.3276)" class="st8" width="1.3" height="9.7"/>
						</g>
					</g>
				</g>
				<g>
					<g>
						<g>
							
								<rect x="125.8" y="224" transform="matrix(0.7244 -0.6893 0.6893 0.7244 -118.8896 151.9688)" class="st8" width="9.7" height="1.3"/>
						</g>
					</g>
				</g>
			</g>
			<g>
				<g>
					<g>
						<g>
							<polygon class="st9" points="197.5,158.4 192.5,154.9 196.3,150.3 225.6,151.8 225.8,177.6 							"/>
						</g>
					</g>
				</g>
				<g>
					<g>
						<path class="st1" d="M182.4,139.3c0,0,3.1,0.8,5.7,2.8c1.3,1,2.8,1.8,4.1,2.3c1.6,0.7,3,1.9,4,3.3l0,0l3.5,2.8
							c0,0-1.6,7.1-2.2,7.9c-0.8,1-3.3-1-3.3-1l-5.4-2.1l-5.5-13.9L182.4,139.3z"/>
					</g>
				</g>
				<g>
					<g>
						<g>
							<path class="st10" d="M196,153.3l-8.8,9.8c0,0-14-14.3-18.1-18.4c-0.6-0.6-0.6-1.6,0.1-2.1l8.1-7.4c0.4-0.4,1.2-0.4,1.6,0
								l1,1l13.3,13.4c0.9,0.9,1.6,1.6,1.6,1.6l1.1,1.1C196.2,152.6,196.2,153,196,153.3z"/>
						</g>
					</g>
				</g>
				<g>
					<g>
						<g>
							<path class="st11" d="M194.9,151.3l-7.8,8.7l-15.8-15.5l8.7-8.2l13.3,13.4C194.2,150.6,194.9,151.3,194.9,151.3z"/>
						</g>
					</g>
				</g>
				<g>
					<g>
						<path class="st10" d="M169.7,142.1l18.9,18.5l-2.1,1.8l-17.3-17.8c-0.6-0.6-0.6-1.6,0.1-2.1L169.7,142.1z"/>
					</g>
				</g>
				<g>
					<g>
						<g>
							<g>
								<g>
									<g>
										<g>
											<path class="st12" d="M226.4,53.2c2.6,2.5,6,3.7,9.2,3.5c2.2-0.2,4.2-1,5.8-2.6c0.8-0.9,1.4-1.8,1.7-2.8
												c1.2-3.5-0.5-7.6-3.8-11.2c-6.2-6.8-13.1-4.8-17.1-1.4c-0.4,0.3-0.7,0.6-1,0.9c-0.6,0.6-1,1.3-1.2,2.1
												C218.9,45.2,222.6,49.6,226.4,53.2z"/>
										</g>
									</g>
								</g>
							</g>
						</g>
						<g class="st13">
							<g>
								<g>
									<g>
										<g>
											<path d="M219.9,41.6l1.5,2.8l14.1,12.3c2.2-0.2,4.2-1,5.8-2.6c0.8-0.9,1.4-1.8,1.7-2.8c-0.1-0.2-0.2-0.4-0.3-0.6
												c-4.6-8.6-14.9-11.2-20.6-12c-0.4,0.3-0.7,0.6-1,0.9C220.5,40.2,220.1,40.9,219.9,41.6z"/>
										</g>
									</g>
								</g>
							</g>
						</g>
						<g>
							<g>
								<g>
									<g>
										<g>
											<path class="st12" d="M204.9,70.3c5.2,10.6,15.5,16.6,24.5,14.7c1.3-0.3,2.6-0.7,3.9-1.3c5.9-2.9,9.4-9.1,9.9-16.3
												c0.3-4.6-0.6-9.6-2.9-14.4c-5.9-12.2-18.7-16.6-28.6-12.1C192.8,49.5,198.9,58.1,204.9,70.3z"/>
										</g>
									</g>
								</g>
							</g>
						</g>
						<g class="st13">
							<g>
								<g>
									<g>
										<g>
											<path d="M229.4,85c1.3-0.3,2.6-0.7,3.9-1.3c5.9-2.9,9.4-9.1,9.9-16.3c-5,4.1-12.4,8.1-12.4,8.1S229.7,82.9,229.4,85z"/>
										</g>
									</g>
								</g>
							</g>
						</g>
						<g>
							<g>
								<g>
									<g>
										<g>
											<path class="st1" d="M225.4,115.5c-0.1,1.4,15.8-8.7,21.8-12.1c1-0.6,1.1-1.9,0.2-2.6c-4.6-3.6-15.4-13.7-14.8-24.8
												c0.3-4.6-18.1,8.8-18.1,8.8C229.1,99.7,226.2,107,225.4,115.5z"/>
										</g>
									</g>
								</g>
							</g>
						</g>
						<g>
							<g>
								<g>
									<g>
										<g>
											<path class="st4" d="M220.9,92c0.3-0.2,7.7-5.9,7.2-3.9c-0.4,1.6-6.1,5.9-6.1,5.9L220.9,92z"/>
										</g>
									</g>
								</g>
							</g>
						</g>
						<g>
							<g>
								<g>
									<g>
										<g>
											<path class="st1" d="M202.1,76.9c1.5,3.1,3.9,6.6,6.1,9.6c0.6,0.8,1.2,1.6,1.8,2.4c2.6,3.3,4.7,5.7,4.7,5.7
												s12.2-3.7,15.8-8.6c3.2-4.4,7.8-10,1.2-23.6c-6.6-13.6-17.5-21.7-26.1-17.6C197.1,48.9,195.5,63.3,202.1,76.9z"/>
										</g>
									</g>
								</g>
							</g>
						</g>
						<g>
							<g>
								<g>
									<g>
										<g>
											<path class="st1" d="M237.5,70.7c-0.8,4.4-3.5,7.7-5.9,7.2c-2.4-0.4-3.7-4.4-2.9-8.8c0.8-4.4,3.5-7.7,5.9-7.2
												C237,62.3,238.3,66.2,237.5,70.7z"/>
										</g>
									</g>
								</g>
							</g>
						</g>
						<g>
							<g>
								<g>
									<g>
										<g>
											<path class="st1" d="M199.9,70.3c0,0,1.2,3.1,1.8,7.2c0.4,2.5-0.9,6.7,0.6,6.3l6.2-2.6L199.9,70.3z"/>
										</g>
									</g>
								</g>
							</g>
						</g>
						<g>
							<g>
								<g>
									<g>
										<g>
											<path class="st14" d="M209.1,74.4c0.8,0.7,1,1.7,0.5,2.2c-0.5,0.5-1.5,0.3-2.2-0.5c-0.8-0.7-1-1.7-0.5-2.2
												C207.3,73.5,208.3,73.7,209.1,74.4z"/>
										</g>
									</g>
								</g>
							</g>
						</g>
						<g>
							<g>
								<g>
									<g>
										<g>
											<path class="st12" d="M212.8,67.9c0.6-0.1-2.1-0.6-6.9,1.4c-1.4,0.6-2.6,1.2-3.1,2c-0.4,0.6,0.9,1.3,2.3,0.4
												C206.7,70.5,209.6,68.6,212.8,67.9z"/>
										</g>
									</g>
								</g>
							</g>
						</g>
						<g>
							<g>
								<g>
									<g>
										<g>
											<polygon class="st14" points="210.2,71.9 206,74 206.9,75.6 210.5,72.4 											"/>
										</g>
									</g>
								</g>
							</g>
						</g>
						<g>
							<g>
								<g>
									<g>
										<g>
											<path class="st12" d="M236.5,54.8c-1,5.8-5.3,9.9-11.1,11.1c-7.8,1.6-23.8,1-27.4-5.5c-1.5-2.8,0.9-10.2,3-12.5
												c3.3-3.7,7.3-5.3,7.3-5.3l14.3,0l11,7.7L236.5,54.8z"/>
										</g>
									</g>
								</g>
							</g>
						</g>
						<g>
							<g>
								<g>
									<g>
										<g>
											<path class="st15" d="M208.2,86.5c0.6,0.8,1.2,1.6,1.8,2.4c1.4-0.3,3.5-2.1,2.9-4.9C212.7,82.9,209.4,85.6,208.2,86.5z"
												/>
										</g>
									</g>
								</g>
							</g>
						</g>
						<g>
							<g>
								<g>
									<g>
										<g>
											<path class="st4" d="M235.6,67.5c0.1-0.1,0.2-0.2,0.2-0.3c0-1.2-0.3-2-1-2.4c-0.9-0.6-1.9-0.1-2-0.1
												c-0.2,0.1-0.3,0.3-0.2,0.4c0.1,0.2,0.3,0.3,0.4,0.2c0,0,0.8-0.3,1.3,0c0.4,0.3,0.6,0.9,0.7,1.8c0,0.2,0.2,0.3,0.3,0.3
												C235.5,67.6,235.6,67.5,235.6,67.5z"/>
										</g>
									</g>
								</g>
							</g>
						</g>
						<g>
							<g>
								<g>
									<g>
										<g>
											<path class="st4" d="M234.7,72.5c0.1-0.1,0.2-0.2,0.2-0.3c0-0.2-0.1-0.3-0.3-0.4c-0.7,0-1.2-0.2-1.4-0.6
												c-0.4-0.6,0-1.6,0.2-2c0.1-0.2,0-0.4-0.1-0.5c-0.2-0.1-0.4,0-0.5,0.1c0,0.1-0.8,1.6-0.2,2.6c0.3,0.6,1,0.9,1.9,0.9
												C234.6,72.5,234.7,72.5,234.7,72.5z"/>
										</g>
									</g>
								</g>
							</g>
						</g>
					</g>
					<g class="st16">
						<g>
							<g>
								<path d="M225.2,59.4c-11.9,0.5-20.3-5.4-22.2-7.5c-0.4-0.4-0.6-0.7-0.4-1c0.1-0.3,0.4-0.4,0.6-0.3c0.2,0.1,0.3,0.2,0.3,0.4
									c0.7,1.1,13.1,11,30.1,6c0.3-0.1,0.5,0.1,0.6,0.3c0.1,0.3-0.1,0.5-0.3,0.6C230.8,58.8,227.9,59.3,225.2,59.4z"/>
							</g>
						</g>
					</g>
				</g>
				<g>
					<g>
						<path class="st17" d="M195.1,155.4c-2.2,1.2-3.9,3.2-4.8,5.5c-1.5,3.6-3,8.2-0.3,7.3c9.2-3.2,7.7-14.3,7.4-14.1
							C196.6,154.5,195.9,155,195.1,155.4z"/>
					</g>
				</g>
				<g>
					<g>
						<g>
							<path class="st9" d="M263,144.6c1.5,16.7-0.2,24.1,1.3,31.9c0.5,2.8,3.2,11.9,5.9,17.9c3.8,8.6-37.1,11-37.1,11l-0.9-18.8
								l-11.8-22.2l-0.5-1.6l-1.7-5.7c-2-6.4-2.1-13.3-0.4-19.8c1.9-7.4,5.6-18.9,8.2-22.5c8.5-11.5,13.5-15.9,18.6-15.6
								C247.2,99.3,259.7,108.2,263,144.6z"/>
						</g>
					</g>
				</g>
				<g>
					<g>
						<path class="st18" d="M255,124.7c-0.2,0-0.3-0.1-0.3-0.3c-1.4-7.5-5.2-9.6-8.3-10c-3.9-0.5-7.7,1.6-8.4,3.3
							c-0.1,0.2-0.3,0.2-0.4,0.2c-0.2-0.1-0.2-0.3-0.2-0.4c1-2.1,5.2-4.2,9.1-3.6c2.6,0.3,7.3,2.2,8.8,10.5
							C255.3,124.5,255.2,124.7,255,124.7C255,124.7,255,124.7,255,124.7z"/>
					</g>
				</g>
				<g>
					<g>
						<path class="st1" d="M199,160l0.8,5.6l-5.9,2.5c0,0-15.9-9.4-15.9-10.9c0-0.1,0-0.2,0-0.3c0,0,0-0.1,0-0.2
							c0-0.2,0.1-0.3,0.1-0.5c0,0,0-0.1,0-0.1c0.1-0.5,0.4-1,0.6-1.5c0.1-0.2,0.2-0.4,0.3-0.6c0,0,0,0,0,0c0.2-0.4,0.4-0.7,0.4-0.7
							c6.6-10.1,13.5,3.1,13.5,3.1L199,160z"/>
					</g>
				</g>
				<g>
					<g>
						<g>
							<path class="st9" d="M249.6,156.4v0.2c-0.4,10.5-1.8,21.5-4.9,28.9c0,0,0,0,0,0c-1.1,2.5-2.3,4.7-3.8,6.3
								c-1.1,1.2-2.5,0.2-3.7,0.7c-1.6,0.7-3.4,2.3-5.7,1.7c-0.5-0.1-0.8,0.2-1.4,0h0c-1.2-0.3-2.5-0.8-3.8-1.4
								c-8-3.6-17.3-9.3-24.5-15.3c-2.8-2.4-5.7-4.5-8-6.1c-0.2-0.1-0.4-0.3-0.6-0.4c-2.5-1.7-4.2-2.8-4.2-2.8s3.9-2.5,6-6
								c3.1-5.3,2.4-8.1,2.4-8.1l4.1,1.9l0.6,0.3l23.8,10.8c0,0-2.1-37.1,4.1-44.7c3.2-3.8,12.3-5.4,16.6,3.5
								c1.3,2.6,2.4,9.3,2.8,17.5C249.7,147.3,249.7,151.8,249.6,156.4z"/>
						</g>
					</g>
				</g>
				<g>
					<g>
						<path class="st18" d="M227.7,168.1c0,0-0.1,0-0.1,0l-7.4-3.4c-0.2-0.1-0.2-0.3-0.2-0.4c0.1-0.2,0.3-0.2,0.4-0.2l7,3.3l5.2-31
							c0-0.2,0.2-0.3,0.4-0.3c0.2,0,0.3,0.2,0.3,0.4l-5.3,31.4c0,0.1-0.1,0.2-0.2,0.2C227.8,168.1,227.8,168.1,227.7,168.1z"/>
					</g>
				</g>
				<g>
					<g>
						<path class="st18" d="M233.2,194.9c-1,0-2.1-0.1-3.2-0.4c-0.2,0-0.3-0.2-0.2-0.4c0-0.2,0.2-0.3,0.4-0.2
							c3.8,0.9,7.2,0.2,10.2-2.2c14.4-11.4,14.5-56.8,14.5-57.2c0-0.2,0.1-0.3,0.3-0.3l0,0c0.2,0,0.3,0.1,0.3,0.3
							c0,1.9-0.1,46.2-14.7,57.7C238.4,194,235.9,194.9,233.2,194.9z"/>
					</g>
				</g>
				<g>
					<g>
						<path class="st18" d="M230.7,150.1C230.7,150.1,230.7,150.1,230.7,150.1c-0.2,0-0.3-0.1-0.3-0.3c0.1-3.4-1.6-7.2-1.6-7.3
							c-0.1-0.2,0-0.4,0.2-0.4c0.2-0.1,0.4,0,0.4,0.2c0.1,0.2,1.7,4,1.7,7.5C231,150,230.9,150.1,230.7,150.1z"/>
					</g>
				</g>
				<g>
					<g>
						<path class="st18" d="M233.1,171.8c-0.1,0-0.1,0-0.2-0.1c-3.8-2.9-8-4.8-8-4.9c-0.2-0.1-0.2-0.3-0.2-0.4
							c0.1-0.2,0.3-0.2,0.4-0.2c0,0,4.3,2,8.2,4.9c0.1,0.1,0.2,0.3,0.1,0.4C233.3,171.7,233.2,171.8,233.1,171.8z"/>
					</g>
				</g>
				<g>
					<g>
						<path class="st1" d="M173.3,148.9c0,0-0.8,1.2-0.7,1.9c0.2,0.7,0.7,1.8,1.7,2.2c1.4,0.5,5.7,1.1,5.7,1.1l4-4.4l-8.8,1.1
							L173.3,148.9z"/>
					</g>
				</g>
				<g>
					<g>
						<path class="st1" d="M187.1,147c-0.5-0.2-1.2-0.1-1.6,0.3c-0.7,0.6-1.9,2.2-1.7,2.4c0.2,0.3,1.3-0.1,1.7,0l-0.5,2.1l4.6,1.5
							l-0.8-4.2C188.7,148.2,188,147.4,187.1,147L187.1,147z"/>
					</g>
				</g>
				<g>
					<g>
						<g>
							<path class="st4" d="M182,155.7c-0.1,0.1-0.2,0.2-0.3,0.2c-0.1,0-0.1,0-0.1,0c0,0-1.8-0.8-2.9-1.3c0.1-0.2,0.2-0.4,0.3-0.6
								c1.1,0.5,2.8,1.3,2.8,1.3C182,155.3,182,155.5,182,155.7z"/>
						</g>
					</g>
				</g>
				<g>
					<g>
						<g>
							<path class="st4" d="M180.1,157.8c-0.1,0.1-0.2,0.2-0.3,0.2c0,0-0.1,0-0.2-0.1c-0.1,0-0.8-0.5-1.7-1c0,0,0-0.1,0-0.2
								c0-0.2,0.1-0.3,0.1-0.5c0.7,0.5,1.5,0.9,1.9,1.2C180.1,157.4,180.2,157.6,180.1,157.8z"/>
						</g>
					</g>
				</g>
				<g>
					<g>
						<path class="st4" d="M185.7,148.3l0,0.9c0,0,0,0.5-0.1,0.4c-0.1,0-0.9-0.1-0.9-0.1L185.7,148.3z"/>
					</g>
				</g>
				<g>
					<g>
						<path d="M177,138.1l-3.6,3.3c-0.2,0.2-0.5,0.2-0.7,0l0,0c-0.2-0.2-0.2-0.5,0-0.7l3.6-3.3c0.2-0.2,0.5-0.2,0.7,0l0,0
							C177.3,137.6,177.2,137.9,177,138.1z"/>
					</g>
				</g>
				<g>
					<g>
						<polygon class="st4" points="189.5,145.8 190.4,146.7 191.7,146.2 						"/>
					</g>
				</g>
				<g>
					<g>
						<path class="st1" d="M192.2,145.8c0,0-3.3,1-3.4,1.5c0,0.4,0.8,1.5,2.3,1.6c0.7,0.1,2.6,0.1,2.6,0.1L192.2,145.8z"/>
					</g>
				</g>
			</g>
			<g>
				<g>
					<g>
						<path class="st8" d="M167.2,136c-0.1,0-0.2,0-0.3-0.1l-7-4.5c-0.3-0.2-0.4-0.6-0.2-0.9c0.2-0.3,0.6-0.4,0.9-0.2l7,4.5
							c0.3,0.2,0.4,0.6,0.2,0.9C167.6,135.9,167.4,136,167.2,136z"/>
					</g>
				</g>
				<g>
					<g>
						<path class="st8" d="M170.9,132.9c-0.3,0-0.5-0.2-0.6-0.5l-2.3-7.5c-0.1-0.3,0.1-0.7,0.4-0.8c0.3-0.1,0.7,0.1,0.8,0.4l2.3,7.5
							c0.1,0.3-0.1,0.7-0.4,0.8C171,132.9,171,132.9,170.9,132.9z"/>
					</g>
				</g>
				<g>
					<g>
						<path class="st8" d="M177,131.6C177,131.6,177,131.6,177,131.6c-0.4,0-0.7-0.3-0.6-0.7l0.4-7.8c0-0.4,0.3-0.6,0.7-0.6
							c0.4,0,0.6,0.3,0.6,0.7l-0.4,7.8C177.6,131.3,177.4,131.6,177,131.6z"/>
					</g>
				</g>
				<g>
					<g>
						<path class="st8" d="M157.8,141.2c-0.4,0-0.6-0.3-0.6-0.6c0-0.4,0.3-0.6,0.6-0.6l8.2-0.1c0,0,0,0,0,0c0.4,0,0.6,0.3,0.6,0.6
							c0,0.4-0.3,0.6-0.6,0.6L157.8,141.2C157.8,141.2,157.8,141.2,157.8,141.2z"/>
					</g>
				</g>
			</g>
			<g>
				<g>
					<g>
						<path class="st19" d="M202.1,156.2c-0.8,3.9-2.9,10.9-8.3,15.2c-0.2-0.1-0.4-0.3-0.6-0.4c5.4-4.2,7.5-11.3,8.3-15.1
							L202.1,156.2z"/>
					</g>
				</g>
			</g>
			<g>
				<g>
					<g>
						<g>
							<g>
								<g>
									<g>
										<path class="st20" d="M141,389.6c0,2.1-10.9,3.9-24.3,3.9s-24.3-1.8-24.3-3.9s11.2-2.5,24.7-2.5
											C130.4,387.1,141,387.5,141,389.6z"/>
									</g>
								</g>
							</g>
						</g>
					</g>
					<g>
						<g>
							<g>
								<g>
									<g>
										<path class="st21" d="M161.7,289.2c0,0,0,0.2,0,0.6c-0.2,4.7-2.5,36.7-20.9,63.9c-19.9,29.5-9.4,40.6-9.4,40.6h-11.6
											c0,0,5.1-86.4,41.4-104.8C161.4,289.4,161.5,289.3,161.7,289.2z"/>
									</g>
								</g>
							</g>
						</g>
					</g>
					<g>
						<g>
							<g>
								<g>
									<g>
										<g>
											<path class="st22" d="M161.7,289.2c0,0,0,0.2,0,0.6c-1.9,3.2-14.1,23.5-25,49.3c-12.2,28.9-9.9,51.9-9.9,52.1
												c0,0.2-0.1,0.3-0.3,0.3h0c-0.1,0-0.3-0.1-0.3-0.3c0-0.2-2.4-23.4,9.9-52.4c11-25.9,23.2-46.3,25.1-49.4
												C161.4,289.4,161.5,289.3,161.7,289.2z"/>
										</g>
									</g>
								</g>
							</g>
						</g>
					</g>
					<g class="st16">
						<g>
							<g>
								<g>
									<g>
										<path d="M124,362.2l6,13c0,0-2,7.9-1.3,11.5c0.7,3.7,1,4.6,1,4.6h-3.4l-2.7-27.2L124,362.2z"/>
									</g>
								</g>
							</g>
						</g>
					</g>
					<g>
						<g>
							<g>
								<g>
									<g>
										<path class="st21" d="M119.4,394.3h-10c0,0-5.5-27.5-28.7-48.8c-0.3-0.3-0.4-0.7-0.3-1c0-0.2,0.1-0.4,0.3-0.5
											c0.3-0.3,0.7-0.5,1.1-0.4c5.4,1,16.8,4.9,28.8,19.9C127.4,384.3,119.4,394.3,119.4,394.3z"/>
									</g>
								</g>
							</g>
						</g>
					</g>
					<g>
						<g>
							<g>
								<g>
									<g>
										<path class="st21" d="M130,395.7h-9.7c0,0-1.6-4.6-9.7-32.3c-7.5-25.7,9.1-66.3,11.4-71.9v0c0.2-0.4,0.3-0.6,0.3-0.6
											c0.1,0,0.2-0.1,0.3-0.1c3.9-1.2,10.8,19.6,5.1,36.7C116.7,361,130,395.7,130,395.7z"/>
									</g>
								</g>
							</g>
						</g>
					</g>
					<g>
						<g>
							<g>
								<g>
									<g>
										<g>
											<path class="st22" d="M123.1,393.3c0.1,0.2,0,0.3-0.2,0.4c0,0-0.1,0-0.1,0c-0.1,0-0.2-0.1-0.3-0.2
												c-4.7-12.4-9.9-39.8-4.7-64.7c4.4-21.5,4.4-34.3,4.3-37.2v0c0.2-0.4,0.3-0.6,0.3-0.6c0.1,0,0.2-0.1,0.3-0.1
												c0,0,0,0.1,0,0.1c0,0.1,0.8,13.4-4.3,38C113.3,353.7,118.4,381,123.1,393.3z"/>
										</g>
									</g>
								</g>
							</g>
						</g>
					</g>
					<g>
						<g>
							<g>
								<g>
									<g>
										<g>
											<path class="st22" d="M115.1,392.4c0,0.2-0.1,0.3-0.3,0.3c0,0,0,0,0,0c-0.2,0-0.3-0.1-0.3-0.3
												c-2.6-29.9-32.8-47.2-34.1-47.9c0-0.2,0.1-0.4,0.3-0.5C81.7,344.5,112.4,362,115.1,392.4z"/>
										</g>
									</g>
								</g>
							</g>
						</g>
					</g>
					<g>
						<g>
							<g>
								<g>
									<g>
										<path class="st23" d="M141,389.6l-0.8,7.7l-0.1,0.7l-0.6,6.2l-0.1,0.7l-3.4,34.4H95.7l-2.4-34.4l0-0.7l-0.4-6.4l0-0.7
											l-0.5-7.4c0,0,7,1.6,24.7,1.6C135.7,391.2,141,389.6,141,389.6z"/>
									</g>
								</g>
							</g>
						</g>
					</g>
				</g>
				<g>
					<g>
						<g>
							<path class="st24" d="M140.2,397.3l-0.1,0.7c-7.7,1.2-15.2,1.6-22.1,1.6c-10.2,0-19.1-0.9-25.2-1.8l0-0.7
								C103.1,398.5,121.1,400.1,140.2,397.3z"/>
						</g>
					</g>
				</g>
				<g>
					<g>
						<g>
							<path class="st24" d="M139.6,404.1l-0.1,0.7c-7.8,1.2-15.4,1.6-22.3,1.6c-9.5,0-17.8-0.8-23.8-1.6l0-0.7
								C103.8,405.5,121.1,406.9,139.6,404.1z"/>
						</g>
					</g>
				</g>
			</g>
			<g class="st7">
				<g>
					<path class="st8" d="M177.2,269.9c-1.7,0-3-1.4-3-3c0-1.7,1.4-3,3-3c1.7,0,3,1.4,3,3C180.2,268.5,178.9,269.9,177.2,269.9z
						 M177.2,265.1c-1,0-1.8,0.8-1.8,1.8c0,1,0.8,1.8,1.8,1.8c1,0,1.8-0.8,1.8-1.8C179,265.9,178.2,265.1,177.2,265.1z"/>
				</g>
			</g>
			<g class="st7">
				<g>
					<path class="st8" d="M135.9,79.2c-2.3,0-4.3-1.9-4.3-4.3c0-2.3,1.9-4.3,4.3-4.3c2.3,0,4.3,1.9,4.3,4.3
						C140.1,77.3,138.2,79.2,135.9,79.2z M135.9,72c-1.6,0-3,1.3-3,3c0,1.6,1.3,3,3,3c1.6,0,3-1.3,3-3C138.8,73.3,137.5,72,135.9,72
						z"/>
				</g>
			</g>
		</g>
	</g>
</g>
</svg>
